<svg width="107" height="93" viewBox="0 0 107 93" fill="none" xmlns="http://www.w3.org/2000/svg">
<mask id="mask0_1_1015" style="mask-type:luminance" maskUnits="userSpaceOnUse" x="31" y="0" width="45" height="39">
<path d="M31.0098 0H75.2272V38.4855H31.0098V0Z" fill="white"/>
</mask>
<g mask="url(#mask0_1_1015)">
<path d="M75.1994 13.0225V38.4693H65.1895V31.0126H68.4312L65.1895 27.8015V13.0225H75.1994Z" fill="#009345"/>
<path d="M43.4207 15.6151L40.179 18.8396H43.4207V38.4689H31.0371V7.44629H43.4207V15.6151Z" fill="#009345"/>
<path d="M62.0021 27.8012L58.7604 31.0123H62.0021V38.469H46.6074V18.8398H49.8491L46.6074 15.6152V0.0166016H62.0021V27.8012Z" fill="#009345"/>
</g>
<path d="M3.69482 47.5216V45.041H15.3817V47.5216H11.0252V59.271H8.05136V47.5216H3.69482Z" fill="#009345"/>
<path d="M19.8936 59.271H16.6696L21.582 45.041H25.4591L30.3646 59.271H27.1406L23.5762 48.2928H23.465L19.8936 59.271ZM19.6921 53.6777H27.3074V56.0262H19.6921V53.6777Z" fill="black"/>
<path d="M35.6339 45.041L38.5035 49.8909H38.6147L41.4982 45.041H44.8959L40.5533 52.156L44.9932 59.271H41.533L38.6147 54.4142H38.5035L35.5853 59.271H32.139L36.5928 52.156L32.2224 45.041H35.6339Z" fill="#FF3131"/>
<path d="M69.2763 45.041H72.2849V54.2822C72.2849 55.3198 72.037 56.2277 71.5414 57.0059C71.0504 57.7841 70.3625 58.3909 69.4778 58.8263C68.593 59.2571 67.5624 59.4725 66.3858 59.4725C65.2046 59.4725 64.1717 59.2571 63.2869 58.8263C62.4022 58.3909 61.7143 57.7841 61.2233 57.0059C60.7323 56.2277 60.4868 55.3198 60.4868 54.2822V45.041H63.4954V54.0251C63.4954 54.567 63.6135 55.0488 63.8497 55.4703C64.0906 55.8918 64.4287 56.223 64.8642 56.4639C65.2996 56.7048 65.8068 56.8252 66.3858 56.8252C66.9695 56.8252 67.4767 56.7048 67.9075 56.4639C68.3429 56.223 68.6787 55.8918 68.915 55.4703C69.1558 55.0488 69.2763 54.567 69.2763 54.0251V45.041Z" fill="#009345"/>
<path d="M78.3126 59.271H75.0886L80.001 45.041H83.8781L88.7835 59.271H85.5595L81.9951 48.2928H81.8839L78.3126 59.271ZM78.1111 53.6777H85.7263V56.0262H78.1111V53.6777Z" fill="black"/>
<path d="M91.2329 59.271V45.041H100.821V47.5216H94.2415V50.9123H100.328V53.3928H94.2415V56.7905H100.849V59.271H91.2329Z" fill="#FF3131"/>
<path d="M6.89908 76.2808V70.0104H7.65838V75.6072H10.5731V76.2808H6.89908ZM11.7057 76.2808V70.0104H15.49V70.6839H12.465V72.8027H15.2941V73.4762H12.465V75.6072H15.539V76.2808H11.7057ZM21.1019 71.9699C21.0345 71.7637 20.9457 71.579 20.8355 71.4157C20.7273 71.2504 20.5977 71.1095 20.4467 70.9932C20.2977 70.8768 20.1283 70.788 19.9384 70.7268C19.7486 70.6656 19.5404 70.635 19.3138 70.635C18.9424 70.635 18.6045 70.7309 18.3004 70.9228C17.9963 71.1146 17.7544 71.3973 17.5748 71.7709C17.3952 72.1444 17.3054 72.6026 17.3054 73.1456C17.3054 73.6885 17.3962 74.1467 17.5778 74.5203C17.7595 74.8938 18.0055 75.1765 18.3157 75.3684C18.626 75.5602 18.975 75.6562 19.3628 75.6562C19.7221 75.6562 20.0384 75.5796 20.312 75.4265C20.5875 75.2714 20.8018 75.053 20.9549 74.7713C21.11 74.4876 21.1876 74.1539 21.1876 73.7702L21.4203 73.8191H19.5343V73.1456H21.9224V73.8191C21.9224 74.3356 21.8122 74.7846 21.5918 75.1663C21.3734 75.548 21.0713 75.844 20.6855 76.0542C20.3018 76.2624 19.8609 76.3665 19.3628 76.3665C18.8076 76.3665 18.3198 76.2359 17.8993 75.9746C17.4809 75.7133 17.1543 75.3418 16.9196 74.8601C16.6869 74.3784 16.5705 73.8069 16.5705 73.1456C16.5705 72.6496 16.6369 72.2036 16.7696 71.8076C16.9043 71.4096 17.0941 71.0707 17.339 70.7911C17.584 70.5115 17.8738 70.2972 18.2086 70.1481C18.5433 69.9991 18.9117 69.9246 19.3138 69.9246C19.6445 69.9246 19.9527 69.9746 20.2385 70.0747C20.5263 70.1726 20.7824 70.3125 21.007 70.4941C21.2335 70.6737 21.4223 70.8891 21.5734 71.1401C21.7244 71.3892 21.8285 71.6657 21.8857 71.9699H21.1019ZM23.2433 76.2808H22.4473L24.7497 70.0104H25.5335L27.8359 76.2808H27.0398L25.1661 71.0024H25.1171L23.2433 76.2808ZM23.5372 73.8314H26.7459V74.505H23.5372V73.8314ZM28.7695 76.2808V70.0104H29.5288V75.6072H32.4435V76.2808H28.7695ZM37.6357 76.3665C37.2234 76.3665 36.8682 76.291 36.5702 76.1399C36.2722 75.9889 36.0426 75.7817 35.8813 75.5184C35.7201 75.2551 35.6395 74.954 35.6395 74.6152C35.6395 74.3539 35.6946 74.1223 35.8048 73.9202C35.917 73.7161 36.0712 73.5273 36.2671 73.3538C36.4651 73.1782 36.6927 73.0027 36.9499 72.8271L37.8561 72.1536C38.0337 72.0372 38.1756 71.9127 38.2817 71.78C38.3899 71.6474 38.444 71.4739 38.444 71.2595C38.444 71.1003 38.3736 70.9462 38.2327 70.7972C38.0939 70.6482 37.9112 70.5737 37.6847 70.5737C37.5255 70.5737 37.3846 70.6145 37.2622 70.6962C37.1417 70.7758 37.0468 70.8779 36.9774 71.0024C36.9101 71.1248 36.8764 71.2514 36.8764 71.382C36.8764 71.529 36.9162 71.678 36.9958 71.829C37.0774 71.978 37.1805 72.1311 37.305 72.2883C37.4316 72.4434 37.5622 72.6026 37.6969 72.7659L40.5749 76.2808H39.7054L37.3295 73.415C37.1091 73.1496 36.909 72.9088 36.7294 72.6924C36.5498 72.4761 36.4069 72.2628 36.3008 72.0525C36.1946 71.8423 36.1416 71.6147 36.1416 71.3698C36.1416 71.0881 36.2038 70.8411 36.3283 70.6288C36.4549 70.4145 36.6314 70.2482 36.858 70.1298C37.0866 70.0093 37.354 69.9491 37.6602 69.9491C37.9745 69.9491 38.245 70.0104 38.4715 70.1328C38.6981 70.2533 38.8726 70.4135 38.9951 70.6135C39.1176 70.8115 39.1788 71.0269 39.1788 71.2595C39.1788 71.5596 39.1043 71.8198 38.9553 72.0403C38.8063 72.2607 38.6032 72.4659 38.346 72.6557L37.0968 73.5865C36.8152 73.7946 36.6243 73.9967 36.5243 74.1927C36.4243 74.3886 36.3743 74.5295 36.3743 74.6152C36.3743 74.8111 36.4253 74.9938 36.5274 75.1632C36.6294 75.3327 36.7733 75.4694 36.9591 75.5735C37.1448 75.6776 37.3622 75.7297 37.6112 75.7297C37.848 75.7297 38.0786 75.6796 38.3031 75.5796C38.5277 75.4776 38.7308 75.3306 38.9124 75.1387C39.0961 74.9469 39.2411 74.7162 39.3472 74.4468C39.4554 74.1774 39.5095 73.8743 39.5095 73.5375H40.2075C40.2075 73.9539 40.1596 74.2937 40.0636 74.557C39.9677 74.8203 39.8595 75.0265 39.7391 75.1755C39.6187 75.3245 39.5217 75.4357 39.4482 75.5092C39.4237 75.5398 39.4013 75.5704 39.3809 75.6011C39.3605 75.6317 39.338 75.6623 39.3135 75.6929C39.1114 75.9195 38.8563 76.0889 38.5481 76.2012C38.2399 76.3114 37.9357 76.3665 37.6357 76.3665ZM44.0686 76.2808H43.2726L45.575 70.0104H46.3588L48.6612 76.2808H47.8652L45.9914 71.0024H45.9424L44.0686 76.2808ZM44.3626 73.8314H47.5712V74.505H44.3626V73.8314ZM54.3458 71.9699H53.5865C53.5416 71.7515 53.463 71.5596 53.3507 71.3943C53.2405 71.2289 53.1058 71.0901 52.9466 70.9779C52.7894 70.8636 52.6149 70.7778 52.423 70.7207C52.2312 70.6635 52.0311 70.635 51.8229 70.635C51.4433 70.635 51.0994 70.7309 50.7911 70.9228C50.485 71.1146 50.2411 71.3973 50.0594 71.7709C49.8798 72.1444 49.79 72.6026 49.79 73.1456C49.79 73.6885 49.8798 74.1467 50.0594 74.5203C50.2411 74.8938 50.485 75.1765 50.7911 75.3684C51.0994 75.5602 51.4433 75.6562 51.8229 75.6562C52.0311 75.6562 52.2312 75.6276 52.423 75.5704C52.6149 75.5133 52.7894 75.4286 52.9466 75.3163C53.1058 75.202 53.2405 75.0622 53.3507 74.8969C53.463 74.7295 53.5416 74.5376 53.5865 74.3213H54.3458C54.2886 74.6417 54.1845 74.9285 54.0335 75.1816C53.8825 75.4347 53.6947 75.65 53.4701 75.8276C53.2456 76.0032 52.9935 76.1369 52.7139 76.2287C52.4363 76.3206 52.1393 76.3665 51.8229 76.3665C51.2882 76.3665 50.8126 76.2359 50.3962 75.9746C49.9798 75.7133 49.6522 75.3418 49.4134 74.8601C49.1746 74.3784 49.0552 73.8069 49.0552 73.1456C49.0552 72.4842 49.1746 71.9127 49.4134 71.431C49.6522 70.9493 49.9798 70.5778 50.3962 70.3165C50.8126 70.0553 51.2882 69.9246 51.8229 69.9246C52.1393 69.9246 52.4363 69.9706 52.7139 70.0624C52.9935 70.1543 53.2456 70.289 53.4701 70.4666C53.6947 70.6421 53.8825 70.8564 54.0335 71.1095C54.1845 71.3606 54.2886 71.6474 54.3458 71.9699ZM60.5754 71.9699H59.8161C59.7712 71.7515 59.6926 71.5596 59.5803 71.3943C59.4701 71.2289 59.3354 71.0901 59.1762 70.9779C59.019 70.8636 58.8445 70.7778 58.6526 70.7207C58.4607 70.6635 58.2607 70.635 58.0525 70.635C57.6729 70.635 57.3289 70.7309 57.0207 70.9228C56.7146 71.1146 56.4706 71.3973 56.289 71.7709C56.1094 72.1444 56.0195 72.6026 56.0195 73.1456C56.0195 73.6885 56.1094 74.1467 56.289 74.5203C56.4706 74.8938 56.7146 75.1765 57.0207 75.3684C57.3289 75.5602 57.6729 75.6562 58.0525 75.6562C58.2607 75.6562 58.4607 75.6276 58.6526 75.5704C58.8445 75.5133 59.019 75.4286 59.1762 75.3163C59.3354 75.202 59.4701 75.0622 59.5803 74.8969C59.6926 74.7295 59.7712 74.5376 59.8161 74.3213H60.5754C60.5182 74.6417 60.4141 74.9285 60.2631 75.1816C60.112 75.4347 59.9242 75.65 59.6997 75.8276C59.4752 76.0032 59.2231 76.1369 58.9435 76.2287C58.6659 76.3206 58.3689 76.3665 58.0525 76.3665C57.5177 76.3665 57.0422 76.2359 56.6258 75.9746C56.2094 75.7133 55.8818 75.3418 55.643 74.8601C55.4041 74.3784 55.2847 73.8069 55.2847 73.1456C55.2847 72.4842 55.4041 71.9127 55.643 71.431C55.8818 70.9493 56.2094 70.5778 56.6258 70.3165C57.0422 70.0553 57.5177 69.9246 58.0525 69.9246C58.3689 69.9246 58.6659 69.9706 58.9435 70.0624C59.2231 70.1543 59.4752 70.289 59.6997 70.4666C59.9242 70.6421 60.112 70.8564 60.2631 71.1095C60.4141 71.3606 60.5182 71.6474 60.5754 71.9699ZM67.0499 73.1456C67.0499 73.8069 66.9305 74.3784 66.6917 74.8601C66.4529 75.3418 66.1253 75.7133 65.7089 75.9746C65.2925 76.2359 64.8169 76.3665 64.2821 76.3665C63.7473 76.3665 63.2717 76.2359 62.8553 75.9746C62.4389 75.7133 62.1113 75.3418 61.8725 74.8601C61.6337 74.3784 61.5143 73.8069 61.5143 73.1456C61.5143 72.4842 61.6337 71.9127 61.8725 71.431C62.1113 70.9493 62.4389 70.5778 62.8553 70.3165C63.2717 70.0553 63.7473 69.9246 64.2821 69.9246C64.8169 69.9246 65.2925 70.0553 65.7089 70.3165C66.1253 70.5778 66.4529 70.9493 66.6917 71.431C66.9305 71.9127 67.0499 72.4842 67.0499 73.1456ZM66.3151 73.1456C66.3151 72.6026 66.2242 72.1444 66.0426 71.7709C65.863 71.3973 65.6191 71.1146 65.3108 70.9228C65.0047 70.7309 64.6618 70.635 64.2821 70.635C63.9024 70.635 63.5585 70.7309 63.2503 70.9228C62.9441 71.1146 62.7002 71.3973 62.5186 71.7709C62.3389 72.1444 62.2491 72.6026 62.2491 73.1456C62.2491 73.6885 62.3389 74.1467 62.5186 74.5203C62.7002 74.8938 62.9441 75.1765 63.2503 75.3684C63.5585 75.5602 63.9024 75.6562 64.2821 75.6562C64.6618 75.6562 65.0047 75.5602 65.3108 75.3684C65.6191 75.1765 65.863 74.8938 66.0426 74.5203C66.2242 74.1467 66.3151 73.6885 66.3151 73.1456ZM72.3985 70.0104H73.1578V74.1621C73.1578 74.5907 73.0567 74.9734 72.8547 75.3102C72.6546 75.6449 72.3719 75.9093 72.0066 76.1032C71.6412 76.295 71.2126 76.391 70.7206 76.391C70.2287 76.391 69.8001 76.295 69.4347 76.1032C69.0694 75.9093 68.7856 75.6449 68.5836 75.3102C68.3835 74.9734 68.2835 74.5907 68.2835 74.1621V70.0104H69.0428V74.1008C69.0428 74.407 69.1102 74.6795 69.2449 74.9183C69.3796 75.1551 69.5715 75.3418 69.8205 75.4786C70.0716 75.6133 70.3716 75.6807 70.7206 75.6807C71.0697 75.6807 71.3697 75.6133 71.6208 75.4786C71.8719 75.3418 72.0637 75.1551 72.1964 74.9183C72.3311 74.6795 72.3985 74.407 72.3985 74.1008V70.0104ZM79.6032 70.0104V76.2808H78.8684L75.4515 71.3575H75.3903V76.2808H74.631V70.0104H75.3658L78.7949 74.9459H78.8561V70.0104H79.6032ZM80.7366 70.6839V70.0104H85.4393V70.6839H83.4676V76.2808H82.7083V70.6839H80.7366ZM87.3274 70.0104V76.2808H86.5681V70.0104H87.3274ZM93.779 70.0104V76.2808H93.0442L89.6273 71.3575H89.5661V76.2808H88.8067V70.0104H89.5416L92.9707 74.9459H93.0319V70.0104H93.779ZM99.5416 71.9699C99.4743 71.7637 99.3855 71.579 99.2753 71.4157C99.1671 71.2504 99.0375 71.1095 98.8864 70.9932C98.7374 70.8768 98.568 70.788 98.3782 70.7268C98.1884 70.6656 97.9802 70.635 97.7536 70.635C97.3821 70.635 97.0443 70.7309 96.7402 70.9228C96.436 71.1146 96.1942 71.3973 96.0145 71.7709C95.8349 72.1444 95.7451 72.6026 95.7451 73.1456C95.7451 73.6885 95.8359 74.1467 96.0176 74.5203C96.1993 74.8938 96.4452 75.1765 96.7555 75.3684C97.0657 75.5602 97.4148 75.6562 97.8026 75.6562C98.1618 75.6562 98.4782 75.5796 98.7517 75.4265C99.0273 75.2714 99.2416 75.053 99.3947 74.7713C99.5498 74.4876 99.6274 74.1539 99.6274 73.7702L99.8601 73.8191H97.974V73.1456H100.362V73.8191C100.362 74.3356 100.252 74.7846 100.032 75.1663C99.8131 75.548 99.511 75.844 99.1252 76.0542C98.7415 76.2624 98.3006 76.3665 97.8026 76.3665C97.2474 76.3665 96.7596 76.2359 96.3391 75.9746C95.9207 75.7133 95.5941 75.3418 95.3593 74.8601C95.1266 74.3784 95.0103 73.8069 95.0103 73.1456C95.0103 72.6496 95.0766 72.2036 95.2093 71.8076C95.344 71.4096 95.5339 71.0707 95.7788 70.7911C96.0237 70.5115 96.3136 70.2972 96.6483 70.1481C96.9831 69.9991 97.3515 69.9246 97.7536 69.9246C98.0843 69.9246 98.3925 69.9746 98.6782 70.0747C98.966 70.1726 99.2222 70.3125 99.4467 70.4941C99.6733 70.6737 99.8621 70.8891 100.013 71.1401C100.164 71.3892 100.268 71.6657 100.325 71.9699H99.5416ZM37.312 84.578C37.2753 84.2677 37.1263 84.0269 36.865 83.8554C36.6038 83.6839 36.2833 83.5982 35.9037 83.5982C35.6261 83.5982 35.3832 83.6431 35.175 83.7329C34.9688 83.8227 34.8076 83.9462 34.6912 84.1034C34.5769 84.2606 34.5198 84.4392 34.5198 84.6392C34.5198 84.8066 34.5596 84.9505 34.6392 85.0709C34.7208 85.1893 34.8249 85.2883 34.9515 85.3679C35.078 85.4455 35.2107 85.5097 35.3495 85.5608C35.4883 85.6098 35.6159 85.6496 35.7322 85.6802L36.369 85.8516C36.5323 85.8945 36.714 85.9537 36.914 86.0292C37.1161 86.1047 37.309 86.2078 37.4927 86.3385C37.6784 86.467 37.8315 86.6324 37.9519 86.8345C38.0724 87.0365 38.1326 87.2845 38.1326 87.5784C38.1326 87.9173 38.0438 88.2234 37.8662 88.497C37.6907 88.7705 37.4335 88.9879 37.0947 89.1491C36.7579 89.3104 36.3486 89.391 35.8669 89.391C35.4179 89.391 35.029 89.3185 34.7004 89.1736C34.3738 89.0287 34.1166 88.8266 33.9288 88.5674C33.7431 88.3082 33.638 88.0071 33.6135 87.6642H34.3973C34.4177 87.9009 34.4973 88.0969 34.6361 88.252C34.7769 88.4051 34.9545 88.5194 35.1688 88.5949C35.3852 88.6684 35.6179 88.7052 35.8669 88.7052C36.1568 88.7052 36.417 88.6582 36.6476 88.5643C36.8783 88.4684 37.061 88.3357 37.1957 88.1663C37.3304 87.9948 37.3978 87.7948 37.3978 87.5662C37.3978 87.358 37.3396 87.1886 37.2233 87.058C37.1069 86.9273 36.9538 86.8212 36.764 86.7395C36.5742 86.6579 36.369 86.5865 36.1486 86.5252L35.377 86.3048C34.8872 86.1639 34.4993 85.9629 34.2136 85.7016C33.9278 85.4404 33.7849 85.0985 33.7849 84.6759C33.7849 84.3249 33.8799 84.0187 34.0697 83.7574C34.2616 83.4941 34.5187 83.29 34.8412 83.1451C35.1658 82.9981 35.5281 82.9246 35.9281 82.9246C36.3323 82.9246 36.6915 82.9971 37.0059 83.142C37.3202 83.2849 37.5692 83.4809 37.7529 83.7299C37.9387 83.9789 38.0366 84.2616 38.0469 84.578H37.312ZM39.3379 89.2808V83.0104H43.1222V83.6839H40.0972V85.8027H42.9262V86.4762H40.0972V88.6072H43.1712V89.2808H39.3379ZM44.4476 89.2808V83.0104H46.5664C47.0562 83.0104 47.4583 83.0941 47.7727 83.2614C48.087 83.4268 48.3197 83.6544 48.4707 83.9442C48.6218 84.234 48.6973 84.5637 48.6973 84.9331C48.6973 85.3026 48.6218 85.6302 48.4707 85.9159C48.3197 86.2017 48.088 86.4262 47.7757 86.5895C47.4634 86.7508 47.0644 86.8314 46.5786 86.8314H44.864V86.1456H46.5541C46.8889 86.1456 47.1583 86.0966 47.3624 85.9986C47.5686 85.9006 47.7176 85.7618 47.8094 85.5822C47.9033 85.4005 47.9502 85.1842 47.9502 84.9331C47.9502 84.6821 47.9033 84.4626 47.8094 84.2749C47.7155 84.0871 47.5655 83.9422 47.3593 83.8401C47.1532 83.736 46.8807 83.6839 46.5419 83.6839H45.2069V89.2808H44.4476ZM47.3991 86.464L48.9422 89.2808H48.0605L46.5419 86.464H47.3991ZM50.0335 83.0104L51.895 88.2888H51.9685L53.83 83.0104H54.6261L52.3237 89.2808H51.5399L49.2374 83.0104H50.0335ZM56.3189 83.0104V89.2808H55.5596V83.0104H56.3189ZM62.844 84.9699H62.0847C62.0398 84.7515 61.9612 84.5596 61.8489 84.3943C61.7387 84.2289 61.604 84.0901 61.4448 83.9779C61.2876 83.8636 61.1131 83.7778 60.9212 83.7207C60.7294 83.6635 60.5293 83.635 60.3211 83.635C59.9415 83.635 59.5975 83.7309 59.2893 83.9228C58.9832 84.1146 58.7392 84.3973 58.5576 84.7709C58.378 85.1444 58.2882 85.6026 58.2882 86.1456C58.2882 86.6885 58.378 87.1467 58.5576 87.5203C58.7392 87.8938 58.9832 88.1765 59.2893 88.3684C59.5975 88.5602 59.9415 88.6562 60.3211 88.6562C60.5293 88.6562 60.7294 88.6276 60.9212 88.5704C61.1131 88.5133 61.2876 88.4286 61.4448 88.3163C61.604 88.202 61.7387 88.0622 61.8489 87.8969C61.9612 87.7295 62.0398 87.5376 62.0847 87.3213H62.844C62.7868 87.6417 62.6827 87.9285 62.5317 88.1816C62.3806 88.4347 62.1929 88.65 61.9683 88.8276C61.7438 89.0032 61.4917 89.1369 61.2121 89.2287C60.9345 89.3206 60.6375 89.3665 60.3211 89.3665C59.7864 89.3665 59.3108 89.2359 58.8944 88.9746C58.478 88.7133 58.1504 88.3418 57.9116 87.8601C57.6727 87.3784 57.5533 86.8069 57.5533 86.1456C57.5533 85.4842 57.6727 84.9127 57.9116 84.431C58.1504 83.9493 58.478 83.5778 58.8944 83.3165C59.3108 83.0553 59.7864 82.9246 60.3211 82.9246C60.6375 82.9246 60.9345 82.9706 61.2121 83.0624C61.4917 83.1543 61.7438 83.289 61.9683 83.4666C62.1929 83.6421 62.3806 83.8564 62.5317 84.1095C62.6827 84.3606 62.7868 84.6474 62.844 84.9699ZM64.0279 89.2808V83.0104H67.8121V83.6839H64.7872V85.8027H67.6162V86.4762H64.7872V88.6072H67.8611V89.2808H64.0279ZM72.5667 84.578C72.53 84.2677 72.381 84.0269 72.1197 83.8554C71.8585 83.6839 71.538 83.5982 71.1583 83.5982C70.8808 83.5982 70.6379 83.6431 70.4297 83.7329C70.2235 83.8227 70.0623 83.9462 69.9459 84.1034C69.8316 84.2606 69.7745 84.4392 69.7745 84.6392C69.7745 84.8066 69.8143 84.9505 69.8939 85.0709C69.9755 85.1893 70.0796 85.2883 70.2062 85.3679C70.3327 85.4455 70.4654 85.5097 70.6042 85.5608C70.743 85.6098 70.8705 85.6496 70.9869 85.6802L71.6237 85.8516C71.787 85.8945 71.9687 85.9537 72.1687 86.0292C72.3708 86.1047 72.5637 86.2078 72.7474 86.3385C72.9331 86.467 73.0862 86.6324 73.2066 86.8345C73.3271 87.0365 73.3873 87.2845 73.3873 87.5784C73.3873 87.9173 73.2985 88.2234 73.1209 88.497C72.9454 88.7705 72.6882 88.9879 72.3494 89.1491C72.0126 89.3104 71.6033 89.391 71.1216 89.391C70.6726 89.391 70.2837 89.3185 69.9551 89.1736C69.6285 89.0287 69.3713 88.8266 69.1835 88.5674C68.9978 88.3082 68.8927 88.0071 68.8682 87.6642H69.652C69.6724 87.9009 69.752 88.0969 69.8908 88.252C70.0316 88.4051 70.2092 88.5194 70.4235 88.5949C70.6399 88.6684 70.8726 88.7052 71.1216 88.7052C71.4115 88.7052 71.6717 88.6582 71.9023 88.5643C72.133 88.4684 72.3157 88.3357 72.4504 88.1663C72.5851 87.9948 72.6525 87.7948 72.6525 87.5662C72.6525 87.358 72.5943 87.1886 72.4779 87.058C72.3616 86.9273 72.2085 86.8212 72.0187 86.7395C71.8289 86.6579 71.6237 86.5865 71.4033 86.5252L70.6317 86.3048C70.1419 86.1639 69.754 85.9629 69.4683 85.7016C69.1825 85.4404 69.0396 85.0985 69.0396 84.6759C69.0396 84.3249 69.1346 84.0187 69.3244 83.7574C69.5162 83.4941 69.7734 83.29 70.0959 83.1451C70.4205 82.9981 70.7828 82.9246 71.1828 82.9246C71.587 82.9246 71.9462 82.9971 72.2606 83.142C72.5749 83.2849 72.8239 83.4809 73.0076 83.7299C73.1934 83.9789 73.2913 84.2616 73.3015 84.578H72.5667Z" fill="black"/>
<path d="M47.1665 55.3794C47.1379 54.4771 47.2477 53.7133 47.4959 53.0879C47.7442 52.4625 48.1046 51.9875 48.5772 51.6629C49.0546 51.3383 49.6156 51.176 50.26 51.176C50.7088 51.176 51.1384 51.2691 51.549 51.4552C51.9595 51.6414 52.425 51.9637 52.9454 52.422C53.2222 52.6654 53.4562 52.8516 53.6471 52.9805C53.8381 53.1046 54.0577 53.1667 54.3059 53.1667C54.6449 53.1667 54.9241 53.0354 55.1437 52.7728C55.3633 52.5055 55.466 52.083 55.4517 51.5054H57.7861C57.8195 52.4124 57.7097 53.1786 57.4567 53.804C57.2037 54.4294 56.8385 54.9044 56.3611 55.229C55.8837 55.5536 55.3275 55.716 54.6926 55.716C54.22 55.716 53.776 55.6181 53.3607 55.4224C52.9501 55.2219 52.4942 54.902 51.993 54.4628C51.697 54.2002 51.4607 54.0117 51.284 53.8971C51.1074 53.7777 50.8974 53.7181 50.6539 53.7181C50.3149 53.7181 50.0357 53.847 49.8161 54.1048C49.5965 54.3578 49.4938 54.7827 49.5081 55.3794H47.1665Z" fill="black"/>
</svg>
