<svg width="72" height="72" viewBox="0 0 72 72" fill="none" xmlns="http://www.w3.org/2000/svg">
<rect width="72" height="72" rx="36" fill="white"/>
<path fill-rule="evenodd" clip-rule="evenodd" d="M50.3999 14.65V15.3H52.2999H54.1999V20.35V25.4H54.899H55.5981L55.624 20.375L55.6499 15.35L57.5249 15.3228L59.3999 15.2956V14.6478V14H54.8999H50.3999V14.65ZM22.3748 38.425L21.7231 39.55L24.9365 39.6L28.1499 39.65L28.176 43.6871L28.2022 47.7242L28.5898 48.2111L28.9775 48.698L29.3387 48.2572L29.6999 47.8163V43.7082V39.6H33.2999C35.2799 39.6 36.8999 39.5727 36.8999 39.5394C36.8999 39.5061 36.6045 38.9886 36.2435 38.3894L35.5871 37.3H29.3069H23.0266L22.3748 38.425Z" fill="#231F20"/>
<path fill-rule="evenodd" clip-rule="evenodd" d="M49.8001 30.6218C49.8001 30.6382 50.7856 33.1937 51.9901 36.3009L54.1802 41.9502L54.9502 42.0002C55.6178 42.0436 55.7329 42.0265 55.8154 41.8719C55.9259 41.6651 60.0988 31.0389 60.1749 30.7708C60.2211 30.6076 60.156 30.594 59.4555 30.6208L58.6853 30.6502L57.438 34.0002C56.752 35.8427 55.9436 38.0477 55.6416 38.9002C55.3395 39.7527 55.0668 40.5177 55.0355 40.6002C55.003 40.6859 54.898 40.4716 54.7905 40.1002C54.687 39.7427 53.8925 37.4702 53.0248 35.0502L51.4473 30.6502L50.6237 30.6212C50.1707 30.6052 49.8001 30.6055 49.8001 30.6218ZM11.3449 37.2731C11.4454 37.5343 16.7428 43.7968 16.803 43.7256C16.9106 43.5982 19.4266 37.3933 19.3868 37.3535C19.3662 37.333 17.5378 37.2789 15.3235 37.2332C12.1524 37.1678 11.3077 37.1763 11.3449 37.2731ZM39.0436 37.4752C39.0749 37.5714 39.68 38.9689 40.3882 40.5805L41.6759 43.5109L44.288 40.4643C45.7247 38.7887 46.9001 37.3913 46.9001 37.359C46.9001 37.3266 45.1196 37.3002 42.9434 37.3002C39.22 37.3002 38.99 37.3105 39.0436 37.4752ZM36.3423 40.2851C36.0166 40.6612 34.2246 42.7046 32.3602 44.8261L28.9703 48.6833L28.2034 47.7168C23.7675 42.1259 21.7237 39.6433 21.6323 39.7347C21.6057 39.7613 20.8277 41.08 19.9034 42.6653C18.2418 45.5148 18.2248 45.5501 18.4005 45.7734C18.4982 45.8977 20.9088 48.7914 23.7572 52.2039C28.6756 58.0962 28.9448 58.3995 29.1052 58.2293C29.1982 58.1308 31.6714 55.2377 34.6014 51.8002C37.5313 48.3627 40.0077 45.4602 40.1044 45.3502C40.2751 45.156 40.2326 45.0703 38.648 42.4163C37.7502 40.9127 36.9974 39.6642 36.9751 39.6419C36.9528 39.6196 36.668 39.909 36.3423 40.2851Z" fill="#E6222C"/>
<path fill-rule="evenodd" clip-rule="evenodd" d="M59.4188 14.623L59.3999 15.2958L57.5249 15.323L55.6499 15.3502L55.6485 20.3752L55.6471 25.4002L55.6744 20.4002L55.7017 15.4002H57.554C59.0247 15.4002 59.4169 15.3721 59.4584 15.264C59.4872 15.1891 59.4943 14.8628 59.4742 14.539L59.4377 13.9502L59.4188 14.623ZM28.8999 14.1754C28.8999 14.2863 26.5152 20.1411 21.5991 32.1002C15.957 45.8254 10.8999 58.196 10.8999 58.2723C10.8999 58.3105 11.5922 57.1062 12.4383 55.596C14.005 52.7998 16.6198 48.2711 20.3462 41.9002C23.1629 37.0845 25.6152 32.8255 27.5723 29.3502C28.4705 27.7552 29.2379 26.4406 29.2776 26.4288C29.3174 26.417 30.0474 27.6512 30.8999 29.1716C31.7524 30.6919 33.4521 33.6405 34.677 35.7241C35.9019 37.8077 36.8773 39.5558 36.8446 39.6088C36.8118 39.6618 36.8305 39.6928 36.886 39.6777C37.0551 39.6317 43.6343 50.6935 46.9668 56.6269C47.4374 57.4647 47.7984 58.0602 47.7692 57.9502C47.5512 57.1311 42.3846 45.0903 37.4494 33.9002C34.8113 27.9186 31.4526 20.0907 30.0479 16.6502C29.1213 14.3804 28.8999 13.9032 28.8999 14.1754ZM51.3249 15.3748C51.8612 15.3927 52.7386 15.3927 53.2749 15.3748C53.8112 15.3568 53.3724 15.3421 52.2999 15.3421C51.2274 15.3421 50.7886 15.3568 51.3249 15.3748ZM54.1463 20.4502C54.1463 23.2002 54.1591 24.3108 54.1748 22.9182C54.1905 21.5257 54.1905 19.2757 54.1748 17.9182C54.1591 16.5608 54.1463 17.7002 54.1463 20.4502ZM23.3249 39.675C24.1911 39.6917 25.6086 39.6917 26.4749 39.675C27.3411 39.6584 26.6324 39.6447 24.8999 39.6447C23.1674 39.6447 22.4586 39.6584 23.3249 39.675ZM29.7456 43.7002C29.7456 45.9827 29.7587 46.9165 29.7748 45.7752C29.7908 44.634 29.7908 42.7665 29.7748 41.6252C29.7587 40.484 29.7456 41.4177 29.7456 43.7002ZM31.5749 39.675C32.5237 39.6915 34.0761 39.6915 35.0249 39.675C35.9737 39.6586 35.1974 39.6452 33.2999 39.6452C31.4024 39.6452 30.6261 39.6586 31.5749 39.675ZM28.1455 43.6502C28.1455 45.8502 28.1587 46.736 28.1748 45.6185C28.1909 44.5011 28.1909 42.7011 28.1748 41.6185C28.1586 40.536 28.1454 41.4502 28.1455 43.6502ZM54.3291 47.2752C54.2936 47.3714 53.3275 49.8935 52.1822 52.8798C51.037 55.8661 50.0999 58.3543 50.0999 58.409C50.0999 58.4691 50.4071 58.497 50.8738 58.4794L51.6477 58.4502L52.2633 56.7502L52.8789 55.0502H55.263H57.6472L58.3054 56.7502L58.9636 58.4502L59.8316 58.4791L60.6996 58.508L60.5248 58.0713C60.4286 57.8311 59.3824 55.2652 58.1999 52.3692L56.0499 47.1038L55.2218 47.102C54.5233 47.1005 54.3835 47.1276 54.3291 47.2752ZM55.0637 48.7862C54.9925 49.2318 54.5664 50.4948 53.8193 52.4752L53.3194 53.8002H55.2487H57.178L56.4543 51.8752C56.0562 50.8165 55.6281 49.6352 55.5028 49.2502C55.2155 48.3668 55.143 48.2902 55.0637 48.7862Z" fill="#179044"/>
</svg>
