<svg width="67" height="67" viewBox="0 0 67 67" fill="none" xmlns="http://www.w3.org/2000/svg">
<circle cx="33.5" cy="33.5" r="33.5" fill="#00D664"/>
<circle cx="33.5" cy="33.5" r="33.5" fill="url(#paint0_linear_1_996)"/>
<path d="M43.5956 27.4406L41.7506 25.5145C41.5019 25.2548 41.1909 25.125 40.8385 25.125C40.4861 25.125 40.1751 25.2548 39.9264 25.5145L31.0538 34.7768L27.0944 30.6218C26.8456 30.3621 26.5347 30.2322 26.1822 30.2322C25.8298 30.2322 25.5189 30.3621 25.2701 30.6218L23.4251 32.5478C23.1556 32.8075 23.0312 33.1321 23.0312 33.5C23.0312 33.8679 23.1556 34.1925 23.4044 34.4522L28.2967 39.5594L30.1417 41.4855C30.3905 41.7452 30.7014 41.875 31.0538 41.875C31.4062 41.875 31.7172 41.7452 31.966 41.4855L33.811 39.5594L43.5956 29.345C43.8444 29.0853 43.9688 28.7607 43.9688 28.3928C43.9688 28.0249 43.8444 27.7003 43.5956 27.4406Z" fill="white"/>
<defs>
<linearGradient id="paint0_linear_1_996" x1="32.5946" y1="88.0266" x2="95.253" y2="62.6706" gradientUnits="userSpaceOnUse">
<stop stop-color="#009345"/>
<stop offset="1" stop-color="#00C15B"/>
</linearGradient>
</defs>
</svg>
