<?xml version="1.0" encoding="utf-8"?><svg viewBox="0 0 79 79" xmlns="http://www.w3.org/2000/svg" xmlns:xlink="http://www.w3.org/1999/xlink"><style>:root>svg{display:none}:root>svg:target{display:block}</style><svg fill="none" viewBox="0 0 79 79" id="service-accounting" xmlns="http://www.w3.org/2000/svg"><rect width="79" height="79" rx="12" fill="#fff"/><path opacity=".45" fill-rule="evenodd" clip-rule="evenodd" d="M29.39 41.04l7.558-6a.808.808 0 01.757-.137l7.077 2.34 5.624-5.785-.228.02a.826.826 0 01-.89-.76.833.833 0 01.747-.907l2.46-.22a.81.81 0 01.659.249c.172.18.256.429.228.678l-.274 2.502a.827.827 0 01-.907.74.834.834 0 01-.725-.926l.013-.113-5.896 6.066a.81.81 0 01-.836.207l-7.144-2.36-7.214 5.728a.808.808 0 01-1.151-.146.849.849 0 01.143-1.175zm5.192-11.736c.453 0 .82-.374.82-.837a.829.829 0 00-.82-.837H33.4a.829.829 0 00-.82.837c0 .463.367.837.82.837h1.182zm3.194 0h11.058c.453 0 .82-.374.82-.837a.829.829 0 00-.82-.837H37.776a.829.829 0 00-.82.837c0 .463.367.837.82.837zM33.4 25.531h1.182c.453 0 .82-.374.82-.837a.829.829 0 00-.82-.837H33.4a.829.829 0 00-.82.837c0 .463.367.837.82.837zm4.376 0h11.058c.453 0 .82-.374.82-.837a.829.829 0 00-.82-.837H37.776a.829.829 0 00-.82.837c0 .463.367.837.82.837zM33.4 21.758h1.182c.453 0 .82-.374.82-.837a.829.829 0 00-.82-.837H33.4a.829.829 0 00-.82.837.83.83 0 00.82.837zm4.376 0h11.058c.453 0 .82-.374.82-.837a.829.829 0 00-.82-.837H37.776a.829.829 0 00-.82.837.83.83 0 00.82.837zM58.76 53.721v5.393c0 .953-.76 1.728-1.694 1.728h-9.641l-2.146 1.348a5.642 5.642 0 01-3.03.888c-.526 0-1.06-.073-1.597-.22l-7.379-2.017H30.31l-.114.068.549.988c.518.934.195 2.124-.722 2.653l-2.074 1.198a1.862 1.862 0 01-1.45.18 1.903 1.903 0 01-1.151-.916l-6.1-10.989c-.518-.934-.195-2.125.722-2.654l2.074-1.197a1.863 1.863 0 011.66-.106V21.727c0-.468.172-.89.496-1.221l4.902-5A1.644 1.644 0 0130.3 15h26.765c.934 0 1.694.775 1.694 1.728v31.871a2.9 2.9 0 01.804.875c.827 1.408.44 3.406-.803 4.247zm-1.694-37.047H30.759v4.24c0 .706-.564 1.281-1.258 1.281h-4.156V51.54l1.695-1V46c0-.462.367-.837.82-.837h4.07c.454 0 .821.375.821.837v1.486a5.045 5.045 0 011.846-.173v-6.452a.83.83 0 01.821-.837h4.07c.454 0 .821.375.821.837v8.318c.602.186 1.22.359 1.846.505v-7.093c0-.462.367-.837.82-.837h4.07a.83.83 0 01.822.837v9.85l1.846-1.097V35.417c0-.462.367-.837.82-.837h4.07c.454 0 .821.375.821.837v12.85c.653-.192 1.215-.251 1.695-.224V16.728c-.002-.029-.026-.054-.054-.054zm-3.284 19.58h-2.429v14.117l1.818-1.08c.21-.125.414-.238.611-.342V36.255zm-8.564 17.278a3.373 3.373 0 01-.17.493c.249-.086.491-.2.73-.343l.447-.265V43.43h-2.428v6.75c1.155.676 1.766 2.039 1.421 3.353zM38.667 41.7h-2.429v6.05c.308.11.635.23.974.355.457.169.945.349 1.455.529V41.7zm-7.558 5.14h-2.428v2.73l1.756-1.037c.218-.129.442-.256.672-.376V46.84zm-4.603-26.317h2.611v-2.664l-2.611 2.664zm2.809 42.2l-6.099-10.99a.267.267 0 00-.365-.103l-2.074 1.198a.28.28 0 00-.101.372l6.098 10.99a.267.267 0 00.365.102l2.074-1.197a.28.28 0 00.102-.372zM57.833 52.34c.532-.334.697-1.364.322-2.004-.556-.946-2.149-.791-4.159.403l-7.392 4.391c-1.17.694-2.425.92-3.839.689l-.92-.153-.032-.006c-1.154-.24-2.223-.552-3.354-.881a95.808 95.808 0 00-1.585-.452.84.84 0 01-.58-1.025.82.82 0 011.005-.593c.553.151 1.09.308 1.61.46 1.088.316 2.117.616 3.196.842.829.096 1.342-.21 1.527-.91.173-.661-.209-1.332-.892-1.581-2.226-.417-4.364-1.206-6.086-1.84-.598-.22-1.115-.411-1.561-.56-1.337-.441-2.632.153-3.832.861l-5.37 3.172 3.496 6.3 1.335-.787a.809.809 0 01.623-.084l9.731 2.66c1.194.326 2.318.166 3.341-.478l13.416-8.424zm-.716 6.775v-4.36l-7.028 4.414h6.976a.054.054 0 00.052-.054zm-34.585-6.147a.753.753 0 00-.625.857.744.744 0 00.84.638.753.753 0 00.625-.857.743.743 0 00-.84-.638z" fill="#1C1C1C"/></svg><svg fill="none" viewBox="0 0 79 79" id="service-lawyer" xmlns="http://www.w3.org/2000/svg"><rect width="79" height="79" rx="12" fill="#fff"/><g opacity=".45" fill="#1C1C1C"><path d="M66.488 44.278a3.455 3.455 0 00-2.168-1.664 3.206 3.206 0 00-2.625.46l-.337.231a3.913 3.913 0 00-.65-1.767c-.579-.845-1.47-1.409-2.457-1.511a3.35 3.35 0 00-2.746.922l-1.108 1.05c-.144-.333-.313-.64-.554-.897-1.06-1.229-2.842-1.357-4.046-.281l-6.407 5.711a.555.555 0 00-.168.23 2.24 2.24 0 01-.361-.179l-2.939-1.741c-3.71-2.74-7.61-.769-7.707-.718l-5.034 2.254V45.2c0-.563-.434-1.024-.963-1.024h-12.26a.93.93 0 00-.819.486 1.1 1.1 0 00-.024 1.025l8.478 16.775a.975.975 0 00.867.538h3.757c.53 0 .964-.461.964-1.024V59.9l3.3-2.202a1.632 1.632 0 011.734-.052l3.853 2.357a9.803 9.803 0 005.034 1.408c.554 0 1.084-.051 1.638-.154l5.732-.998c2.457-.436 4.841-1.511 6.864-3.073l10.26-8.017c1.446-1.101 1.831-3.278.892-4.892zm-12.524.897l2.842-2.69c.337-.332.77-.486 1.228-.435.458.051.843.307 1.132.692.24.384.337.845.265 1.28a1.69 1.69 0 01-.675 1.127l-6.117 4.43a3.334 3.334 0 00-1.277-1.946l2.24-2.1c.145-.102.241-.23.362-.358zm-2.939-2.792c.434-.358 1.036-.333 1.397.102.193.205.265.487.265.769a1.16 1.16 0 01-.168.512l-3.372 3.202h-3.252l5.13-4.585zm13.416 5.148l-10.26 7.99a13.682 13.682 0 01-6.022 2.715l-5.732 1c-1.855.332-3.758-.052-5.395-1.025l-3.854-2.33a3.415 3.415 0 00-3.71.076l-2.119 1.409V48.53l5.66-2.536c.12-.05 3.035-1.51 5.901.59l2.987 1.792c.722.436 1.517.64 2.336.64h5.275c.722 0 1.3.564 1.373 1.332.096.769-.386 1.46-1.108 1.588l-1.71.384c-.073.026-5.95 2.715-10.839.026-.457-.256-1.035-.051-1.276.46a1.004 1.004 0 00.41 1.358c5.708 3.15 12.21.18 12.259.103l1.517-.308c.963-.205 1.71-.845 2.192-1.664l7.514-5.456c.145-.102.217-.256.338-.358.024-.026.072-.026.096-.051l2.433-1.614c.361-.23.77-.307 1.18-.205.41.103.746.359.963.743.434.717.24 1.665-.41 2.177z"/><path d="M28.658 34.514c3.514 0 7.634-.783 7.634-3.009 0-.856-.63-1.516-1.6-1.98L29.7 17.956h8.991v21.912h-1.575c-.533 0-.97.44-.97.979 0 .073.025.122.025.195h-.848c-.534 0-.97.44-.97.979 0 .538.436.978.97.978h8.603c.533 0 .97-.44.97-.978a.977.977 0 00-.97-.979h-.848c.024-.073.048-.122.048-.195a.977.977 0 00-.97-.979h-1.55V17.957h9.403l-4.847 11.64c-.872.465-1.454 1.101-1.454 1.908 0 2.226 4.12 3.008 7.658 3.008 3.514 0 7.634-.782 7.634-3.008 0-.856-.63-1.516-1.6-1.98l-4.992-11.569h1.963c.534 0 .97-.44.97-.978a.977.977 0 00-.97-.978H24.926c-.533 0-.97.44-.97.978s.437.978.97.978h2.4l-4.872 11.642c-.872.464-1.454 1.1-1.454 1.907 0 2.226 4.12 3.009 7.658 3.009zm26.294-5.699c-1.139-.22-2.399-.318-3.586-.318-1.26 0-2.593.098-3.78.343l3.634-8.707 3.733 8.682zm-26.44-8.682l3.757 8.682a19.835 19.835 0 00-3.61-.318c-1.261 0-2.57.098-3.781.343l3.635-8.707z"/></g></svg></svg>