<svg width="100" height="100" viewBox="0 0 100 100" fill="none" xmlns="http://www.w3.org/2000/svg">
<rect width="100" height="100" rx="12" fill="#009345"/>
<path d="M49.9967 29.498C44.2077 29.498 39.4974 34.2087 39.4974 39.9993C39.4974 45.7887 44.2077 50.498 49.9967 50.498C55.7863 50.498 60.4966 45.7887 60.4966 39.9993C60.4966 34.2087 55.7863 29.498 49.9967 29.498ZM49.9967 44.498C47.5155 44.498 45.497 42.4793 45.497 39.9993C45.497 37.5167 47.5155 35.498 49.9967 35.498C52.4818 35.498 54.497 37.5167 54.497 39.9993C54.497 42.4793 52.4818 44.498 49.9967 44.498ZM70 39.9993C70 28.9733 61.0266 20 49.9967 20C38.9734 20 30 28.9733 30 39.9993C30 43.222 30.7839 46.262 32.1465 48.96H32.1325L32.2072 49.086C32.5045 49.666 32.8271 50.232 33.1785 50.7793L49.9967 80L66.9209 50.6093C67.2195 50.1347 67.5042 49.6513 67.7621 49.1473L67.8701 48.96H67.8535C69.2107 46.262 70 43.222 70 39.9993ZM62.4938 46.2633L62.3625 46.5227C62.1985 46.8347 62.0199 47.134 61.8352 47.4307L61.7765 47.5213L61.7239 47.6153L49.9987 67.9767L38.3781 47.7853L38.3041 47.6567L38.2248 47.532C38.0115 47.2007 37.8148 46.8593 37.6302 46.5107L37.5015 46.256C36.5056 44.2813 35.9996 42.1767 35.9996 39.9993C35.9996 32.28 42.2792 26 49.9967 26C57.7175 26 64.0004 32.28 64.0004 39.9993C64.0004 42.1707 63.4931 44.278 62.4938 46.2633Z" fill="white"/>
</svg>
