<svg width="100" height="100" viewBox="0 0 100 100" fill="none" xmlns="http://www.w3.org/2000/svg">
<rect width="100" height="100" rx="12" fill="#009345"/>
<path d="M68.4545 71.0909H63.1818C61.6 71.0909 60.5455 70.0364 60.5455 68.4545C60.5455 66.8727 61.6 65.8182 63.1818 65.8182H68.4545C71.3545 65.8182 73.7273 63.4455 73.7273 60.5455V31.5455C73.7273 28.6455 71.3545 26.2727 68.4545 26.2727H47.3636C44.4636 26.2727 42.0909 28.6455 42.0909 31.5455V36.8182C42.0909 38.4 41.0364 39.4545 39.4545 39.4545C37.8727 39.4545 36.8182 38.4 36.8182 36.8182V31.5455C36.8182 25.7455 41.5636 21 47.3636 21H68.4545C74.2545 21 79 25.7455 79 31.5455V60.5455C79 66.3455 74.2545 71.0909 68.4545 71.0909ZM68.4545 36.8182C68.4545 35.2364 67.4 34.1818 65.8182 34.1818H50C48.4182 34.1818 47.3636 35.2364 47.3636 36.8182C47.3636 38.4 48.4182 39.4545 50 39.4545H65.8182C67.4 39.4545 68.4545 38.4 68.4545 36.8182ZM68.4545 47.3636C68.4545 45.7818 67.4 44.7273 65.8182 44.7273H60.5455C58.9636 44.7273 57.9091 45.7818 57.9091 47.3636C57.9091 48.9455 58.9636 50 60.5455 50H65.8182C67.4 50 68.4545 48.9455 68.4545 47.3636ZM57.9091 60.5455C57.9091 70.8273 49.7364 79 39.4545 79C29.1727 79 21 70.8273 21 60.5455C21 50.2636 29.1727 42.0909 39.4545 42.0909C49.7364 42.0909 57.9091 50.2636 57.9091 60.5455ZM31.5455 55.2727C31.5455 56.8545 32.6 57.9091 34.1818 57.9091C35.7636 57.9091 36.8182 56.8545 36.8182 55.2727C36.8182 53.6909 35.7636 52.6364 34.1818 52.6364C32.6 52.6364 31.5455 53.6909 31.5455 55.2727ZM47.3636 65.8182C47.3636 64.2364 46.3091 63.1818 44.7273 63.1818C43.1455 63.1818 42.0909 64.2364 42.0909 65.8182C42.0909 67.4 43.1455 68.4545 44.7273 68.4545C46.3091 68.4545 47.3636 67.4 47.3636 65.8182ZM46.5727 53.4273C45.5182 52.3727 43.9364 52.3727 42.8818 53.4273L32.3364 63.9727C31.2818 65.0273 31.2818 66.6091 32.3364 67.6636C32.8636 68.1909 33.3909 68.4545 34.1818 68.4545C34.9727 68.4545 35.5 68.1909 36.0273 67.6636L46.5727 57.1182C47.6273 56.0636 47.6273 54.4818 46.5727 53.4273Z" fill="white"/>
</svg>
