<svg width="26" height="27" viewBox="0 0 26 27" fill="none" xmlns="http://www.w3.org/2000/svg">
<path d="M25.088 19.1966C24.9415 19.5541 24.7788 19.9063 24.5999 20.2327L24.5673 20.2948C23.0325 23.1195 20.4221 25.2744 17.2738 26.3157C14.1255 27.357 10.6791 27.2053 7.64428 25.892C4.60951 24.5787 2.21755 22.2037 0.96106 19.2562C-0.295427 16.3088 -0.320755 13.0132 0.890294 10.0484C1.03672 9.69102 1.19941 9.33877 1.37837 9.01241C1.50997 8.76718 1.73817 8.58192 2.01277 8.49741C2.28736 8.41289 2.58586 8.43603 2.84259 8.56174C3.09933 8.68745 3.29327 8.90543 3.38175 9.16772C3.47023 9.43002 3.446 9.71515 3.3144 9.96039C3.16798 10.2453 3.02698 10.5354 2.90225 10.8358C1.89994 13.3059 1.92628 16.0489 2.97584 18.501C4.0254 20.9531 6.01845 22.928 8.54531 24.0198C11.0722 25.1115 13.9409 25.2372 16.5618 24.371C19.1826 23.5048 21.3566 21.7124 22.6367 19.3624L22.6639 19.3054C22.8103 19.0257 22.9513 18.7356 23.076 18.4352C23.9026 16.4448 24.0634 14.2587 23.5361 12.1776C23.0088 10.0964 21.8193 8.22242 20.1314 6.81341C18.4435 5.40439 16.34 4.52956 14.1102 4.30925C11.8805 4.08894 9.63407 4.53397 7.67996 5.58313L10.6572 6.25656C10.9128 6.31766 11.1364 6.46556 11.2862 6.67262C11.436 6.87968 11.5017 7.13175 11.4712 7.38174C11.4406 7.63173 11.3159 7.86255 11.1202 8.03108C10.9245 8.19961 10.6712 8.29433 10.4078 8.29755C10.3238 8.2992 10.2399 8.2905 10.1583 8.27165L4.85455 7.07503C4.71534 7.04459 4.58381 6.98819 4.46748 6.90908C4.35115 6.82996 4.25232 6.72968 4.17667 6.61399C4.10018 6.49611 4.04925 6.36476 4.02689 6.22773C4.00453 6.09069 4.0112 5.95077 4.04651 5.81624L5.29924 0.750027C5.37606 0.494529 5.55276 0.277014 5.79279 0.14248C6.03281 0.00794595 6.31778 -0.033313 6.58876 0.0272383C6.85973 0.0877896 7.09597 0.245518 7.24861 0.467794C7.40125 0.69007 7.4586 0.959885 7.40881 1.22142L6.80685 3.68201C9.15631 2.47174 11.8385 1.98077 14.49 2.27567C17.1414 2.57056 19.6337 3.63705 21.6292 5.33058C23.6248 7.02411 25.0269 9.26276 25.6456 11.7431C26.2643 14.2235 26.0696 16.8255 25.088 19.1966Z" fill="white"/>
</svg>
