<svg width="79" height="79" viewBox="0 0 79 79" fill="none" xmlns="http://www.w3.org/2000/svg">
<rect width="79" height="79" rx="12" fill="white"/>
<g opacity="0.45">
<path d="M66.488 44.2782C66.0062 43.4332 65.2356 42.844 64.3203 42.6135C63.4292 42.383 62.4898 42.5366 61.6951 43.0746L61.3579 43.3051C61.2855 42.6648 61.0688 42.0758 60.7075 41.538C60.1294 40.6927 59.2383 40.1293 58.2509 40.0269C57.2633 39.8988 56.2518 40.2318 55.5052 40.9488L54.3973 41.999C54.2528 41.666 54.0842 41.3587 53.8434 41.1025C52.7836 39.8732 51.0014 39.7452 49.797 40.8207L43.3903 46.532C43.3181 46.5833 43.2699 46.6601 43.2217 46.7626C43.1013 46.7113 42.9809 46.6602 42.8605 46.5833L39.922 44.8417C36.2129 42.1013 32.3111 44.0734 32.2149 44.1245L27.1811 46.3783V45.2003C27.1811 44.6368 26.7475 44.1758 26.2176 44.1758H13.9581C13.6209 44.1758 13.3077 44.3551 13.1391 44.6624C12.9705 44.9698 12.9465 45.354 13.115 45.687L21.593 62.4622C21.7617 62.7952 22.0989 63 22.46 63H26.2173C26.7473 63 27.1808 62.539 27.1808 61.9757V59.9012L30.4805 57.6986C31.0105 57.34 31.6847 57.34 32.2147 57.6474L36.0683 60.0036C37.6098 60.9255 39.3439 61.4121 41.1022 61.4121C41.6561 61.4121 42.1859 61.361 42.7399 61.2585L48.4723 60.2598C50.9288 59.8243 53.3133 58.7487 55.3365 57.1865L65.5968 49.1702C67.0419 48.0688 67.4273 45.8918 66.488 44.2782ZM53.9636 45.1747L56.8056 42.4855C57.1429 42.1525 57.5764 41.9989 58.034 42.05C58.4916 42.1013 58.8768 42.3573 59.166 42.7416C59.4068 43.1258 59.5031 43.5868 59.4309 44.0221C59.3586 44.4831 59.1178 44.893 58.7564 45.1489L52.6389 49.5797C52.4462 48.76 51.9885 48.0943 51.3624 47.6332L53.6024 45.5332C53.7469 45.4308 53.8432 45.3027 53.9636 45.1747ZM51.0253 42.383C51.4589 42.0245 52.0609 42.05 52.4222 42.4855C52.6149 42.6903 52.6872 42.9722 52.6872 43.2539C52.6631 43.4588 52.6149 43.6125 52.5186 43.7661L49.1466 46.9675H45.8952L51.0253 42.383ZM64.4408 47.5309L54.1805 55.5216C52.4222 56.9046 50.3267 57.8523 48.1591 58.2364L42.4268 59.2354C40.5722 59.5683 38.6695 59.1841 37.0317 58.2108L33.178 55.8802C32.022 55.163 30.5767 55.2143 29.4689 55.957L27.3493 57.3657V48.5298L33.0094 45.9943C33.1299 45.9431 36.0441 44.4832 38.9103 46.5834L41.8968 48.3762C42.6194 48.8116 43.4142 49.0165 44.2332 49.0165H49.5079C50.2304 49.0165 50.8084 49.5799 50.8807 50.3483C50.977 51.1166 50.4953 51.808 49.7728 51.9361L48.0627 52.3202C47.9905 52.3459 42.1137 55.0351 37.2243 52.3459C36.7667 52.0898 36.1887 52.2946 35.9479 52.8069C35.683 53.2935 35.8756 53.9081 36.3573 54.1643C42.0656 57.3144 48.5686 54.3436 48.6168 54.2667L50.1341 53.9594C51.0974 53.7544 51.8441 53.1141 52.3259 52.2946L59.8405 46.8395C59.985 46.737 60.0573 46.5834 60.1777 46.481C60.2018 46.4553 60.2499 46.4553 60.274 46.4297L62.7067 44.8162C63.0681 44.5858 63.4775 44.5089 63.8868 44.6113C64.2963 44.7138 64.6335 44.9699 64.8504 45.3541C65.2837 46.0711 65.0909 47.0186 64.4408 47.5309Z" fill="#1C1C1C"/>
<path d="M28.6581 34.5135C32.1721 34.5135 36.2919 33.7308 36.2919 31.5054C36.2919 30.6493 35.662 29.9892 34.6925 29.5245L29.7002 17.9566H38.6913V39.8693H37.116C36.5828 39.8693 36.1465 40.3096 36.1465 40.8477C36.1465 40.921 36.1708 40.97 36.1708 41.0433H35.3227C34.7894 41.0433 34.3532 41.4836 34.3532 42.0216C34.3532 42.5598 34.7894 43 35.3227 43H43.9259C44.459 43 44.8954 42.5598 44.8954 42.0216C44.8954 41.4836 44.459 41.0433 43.9259 41.0433H43.0778C43.1019 40.97 43.1262 40.921 43.1262 40.8477C43.1262 40.3096 42.6899 39.8693 42.1569 39.8693H40.6059V17.9566H50.0089L45.1621 29.5977C44.2897 30.0624 43.708 30.6982 43.708 31.5053C43.708 33.7308 47.8279 34.5133 51.3662 34.5133C54.8802 34.5133 59 33.7307 59 31.5053C59 30.6492 58.3701 29.9891 57.4006 29.5244L52.4083 17.9565H54.3713C54.9046 17.9565 55.3408 17.5162 55.3408 16.9784C55.3408 16.4402 54.9046 16 54.3713 16H24.9259C24.3927 16 23.9566 16.4402 23.9566 16.9784C23.9566 17.5164 24.3929 17.9565 24.9259 17.9565H27.3252L22.4541 29.5975C21.5818 30.0622 21 30.698 21 31.5052C21 33.7309 25.1198 34.5135 28.6581 34.5135ZM54.9525 28.8151C53.8135 28.5951 52.5532 28.4973 51.3658 28.4973C50.1056 28.4973 48.7726 28.5951 47.5852 28.8396L51.2204 20.1332L54.9525 28.8151ZM28.5127 20.1332L32.269 28.8151C31.1058 28.5951 29.8455 28.4973 28.6581 28.4973C27.3979 28.4973 26.0892 28.5951 24.8775 28.8396L28.5127 20.1332Z" fill="#1C1C1C"/>
</g>
</svg>
