<svg width="79" height="79" viewBox="0 0 79 79" fill="none" xmlns="http://www.w3.org/2000/svg">
<rect width="79" height="79" rx="12" fill="white"/>
<path opacity="0.45" fill-rule="evenodd" clip-rule="evenodd" d="M29.3906 41.0408L36.9477 35.0393C37.1626 34.8689 37.4456 34.8179 37.7049 34.9034L44.7821 37.2425L50.4061 31.458L50.1783 31.4787C49.7254 31.5182 49.3288 31.1786 49.2889 30.7179C49.2495 30.2571 49.5831 29.8515 50.0348 29.8108L52.495 29.591C52.7408 29.5692 52.9822 29.6604 53.1538 29.84C53.3259 30.0196 53.4097 30.2686 53.3822 30.5176L53.1076 33.0203C53.0609 33.4483 52.7054 33.7645 52.293 33.7645C52.2626 33.7645 52.2317 33.7627 52.2008 33.7593C51.7501 33.7077 51.4261 33.294 51.4762 32.8344L51.4885 32.7214L45.5928 38.7871C45.3745 39.0114 45.0516 39.0917 44.7568 38.9942L37.6132 36.6332L30.3993 42.3621C30.2497 42.4809 30.0719 42.5388 29.8958 42.5388C29.6511 42.5388 29.4098 42.4281 29.2477 42.2158C28.9693 41.8503 29.0334 41.3248 29.3906 41.0408ZM34.5821 29.3041C35.0355 29.3041 35.4029 28.9295 35.4029 28.467C35.4029 28.0046 35.0355 27.6299 34.5821 27.6299H33.4001C32.9467 27.6299 32.5793 28.0046 32.5793 28.467C32.5793 28.9295 32.9467 29.3041 33.4001 29.3041H34.5821ZM37.7764 29.3041H48.8338C49.2872 29.3041 49.6545 28.9295 49.6545 28.467C49.6545 28.0046 49.2872 27.6299 48.8338 27.6299H37.7764C37.3229 27.6299 36.9556 28.0046 36.9556 28.467C36.9556 28.9295 37.3229 29.3041 37.7764 29.3041ZM33.4001 25.5312H34.5821C35.0355 25.5312 35.4029 25.1565 35.4029 24.6941C35.4029 24.2316 35.0355 23.857 34.5821 23.857H33.4001C32.9467 23.857 32.5793 24.2316 32.5793 24.6941C32.5793 25.1565 32.9467 25.5312 33.4001 25.5312ZM37.7764 25.5312H48.8338C49.2872 25.5312 49.6545 25.1565 49.6545 24.6941C49.6545 24.2316 49.2872 23.857 48.8338 23.857H37.7764C37.3229 23.857 36.9556 24.2316 36.9556 24.6941C36.9556 25.1565 37.3229 25.5312 37.7764 25.5312ZM33.4001 21.7582H34.5821C35.0355 21.7582 35.4029 21.3835 35.4029 20.9211C35.4029 20.4587 35.0355 20.084 34.5821 20.084H33.4001C32.9467 20.084 32.5793 20.4587 32.5793 20.9211C32.5793 21.383 32.9467 21.7582 33.4001 21.7582ZM37.7764 21.7582H48.8338C49.2872 21.7582 49.6545 21.3835 49.6545 20.9211C49.6545 20.4587 49.2872 20.084 48.8338 20.084H37.7764C37.3229 20.084 36.9556 20.4587 36.9556 20.9211C36.9556 21.383 37.3229 21.7582 37.7764 21.7582ZM58.7587 53.7206V59.1144C58.7587 60.0669 57.9986 60.842 57.0648 60.842H47.4239L45.2777 62.1897C44.3388 62.7795 43.311 63.0779 42.2477 63.0779C41.7223 63.0779 41.1878 63.005 40.6511 62.8582L33.2724 60.8414H30.3093L30.1951 60.9086L30.7436 61.8965C31.2623 62.8312 30.9388 64.0211 30.0224 64.5501L27.9482 65.7476C27.6585 65.9151 27.3378 66 27.0132 66C26.8416 66 26.6689 65.9765 26.4984 65.9283C26.0062 65.7889 25.5972 65.4635 25.3468 65.012L19.2474 54.023C18.7287 53.0889 19.0522 51.8984 19.9686 51.3694L22.0429 50.172C22.4856 49.9161 23.0004 49.8524 23.4926 49.9912C23.5652 50.0119 23.6349 50.0371 23.703 50.0658V21.7272C23.703 21.259 23.8746 20.8368 24.1992 20.5057L29.1015 15.506C29.4261 15.175 29.8401 15 30.2992 15H57.0642C57.9981 15 58.7581 15.7751 58.7581 16.7276V48.5993C59.1806 48.9017 59.4338 49.2563 59.562 49.4743C60.389 50.8817 60.0025 52.8801 58.7587 53.7206ZM57.0648 16.6742H30.7588V20.9131C30.7588 21.6199 30.1951 22.1954 29.5015 22.1954H25.3452V51.5392L27.0396 50.5386V46.0014C27.0396 45.539 27.407 45.1643 27.8604 45.1643H31.9307C32.3841 45.1643 32.7514 45.539 32.7514 46.0014V47.4868C33.3388 47.3256 33.9554 47.2504 34.5973 47.3141V40.8623C34.5973 40.3999 34.9646 40.0252 35.418 40.0252H39.4883C39.9417 40.0252 40.3091 40.3999 40.3091 40.8623V49.18C40.9105 49.3659 41.5293 49.5386 42.1549 49.6854V42.5922C42.1549 42.1297 42.5222 41.7551 42.9757 41.7551H47.0459C47.4993 41.7551 47.8667 42.1297 47.8667 42.5922V52.4417L49.7125 51.3453V35.4174C49.7125 34.955 50.0799 34.5803 50.5333 34.5803H54.6035C55.0569 34.5803 55.4243 34.955 55.4243 35.4174V48.2677C56.0769 48.0755 56.6389 48.0158 57.1188 48.0434V16.7276C57.1171 16.6994 57.0929 16.6742 57.0648 16.6742ZM53.781 36.2545H51.3524V50.3705L53.1701 49.2907C53.3799 49.1662 53.5836 49.0526 53.781 48.9487V36.2545ZM45.217 53.5324C45.1714 53.7063 45.1146 53.8704 45.0471 54.0253C45.2957 53.9386 45.5382 53.8245 45.7778 53.6822L46.2245 53.4171V43.4293H43.7959V50.1794C44.9514 50.8553 45.5624 52.218 45.217 53.5324ZM38.6669 41.6994H36.2383V47.749C36.546 47.8592 36.8734 47.9797 37.2121 48.1042C37.6689 48.2729 38.1572 48.4525 38.6669 48.6326V41.6994ZM31.1093 46.8385H28.6807V49.569L30.437 48.5316C30.6547 48.4031 30.8786 48.2763 31.1087 48.1558L31.1093 46.8385ZM26.5058 20.5218H29.1172V17.8584L26.5058 20.5218ZM29.3147 62.7216L23.2164 51.7326C23.1697 51.6482 23.0949 51.6167 23.0544 51.6052C23.0364 51.6 23.0105 51.5949 22.9801 51.5949C22.9424 51.5949 22.8974 51.6029 22.8513 51.6293L20.7771 52.8267C20.6505 52.8996 20.6044 53.07 20.6758 53.1991L26.7741 64.1881C26.8208 64.2724 26.8956 64.304 26.9361 64.3155C26.9766 64.327 27.0565 64.339 27.1392 64.2914L29.2134 63.094C29.3394 63.0205 29.3861 62.8501 29.3147 62.7216ZM57.8332 52.339C58.3654 52.0051 58.5303 50.9747 58.1545 50.3349C57.5992 49.3894 56.006 49.5437 53.9965 50.7377L46.6037 55.1292C45.4347 55.8234 44.179 56.0483 42.7653 55.8177L41.8455 55.6651C41.8398 55.6639 41.8179 55.6599 41.8128 55.6587C40.659 55.4183 39.5901 55.1068 38.4588 54.7775C37.9451 54.6277 37.4141 54.4734 36.874 54.3259C36.4363 54.206 36.1764 53.7476 36.2934 53.3006C36.411 52.8543 36.8611 52.5892 37.2987 52.7085C37.8517 52.8594 38.3896 53.0161 38.9094 53.1675C39.9974 53.4842 41.0263 53.7837 42.1054 54.0104C42.9335 54.1062 43.4471 53.8004 43.6316 53.0992C43.8049 52.4389 43.4235 51.7682 42.7405 51.5186C40.5144 51.102 38.3755 50.3131 36.654 49.6786C36.056 49.4582 35.539 49.2677 35.0929 49.1197C33.7556 48.6779 32.4606 49.2718 31.2606 49.9804L25.8903 53.1515L29.3867 59.4518L30.7222 58.6652C30.9107 58.5545 31.1352 58.524 31.345 58.5814L41.0764 61.2408C42.2696 61.5672 43.3937 61.4066 44.4175 60.7634L57.8332 52.339ZM57.1171 59.1144V54.7545L50.0894 59.1678H57.0648C57.0929 59.1678 57.1171 59.1431 57.1171 59.1144ZM22.5323 52.9673C22.1278 53.0275 21.8476 53.4114 21.9067 53.8239C21.9658 54.2364 22.3421 54.5221 22.7466 54.4619C23.1511 54.4017 23.4313 54.0178 23.3722 53.6053C23.3131 53.1928 22.9368 52.907 22.5323 52.9673Z" fill="#1C1C1C"/>
</svg>
