<svg width="100" height="100" viewBox="0 0 100 100" fill="none" xmlns="http://www.w3.org/2000/svg">
<rect width="100" height="100" rx="12" fill="#009345"/>
<path fill-rule="evenodd" clip-rule="evenodd" d="M73.0002 59.6278V57.1438C73.0002 56.0483 72.3348 55.0663 71.3185 54.6598L62.0885 50.967C61.1963 50.6096 60.1993 50.6096 59.3071 50.967L50.0772 54.6598C49.0609 55.0663 48.3955 56.0483 48.3955 57.1438V59.6278C48.3955 60.336 48.6779 61.0163 49.1786 61.5191C49.6814 62.0198 50.3596 62.3022 51.0699 62.3022C54.7221 62.3022 66.6736 62.3022 70.3257 62.3022C71.0361 62.3022 71.7143 62.0198 72.2171 61.5191C72.7177 61.0163 73.0002 60.336 73.0002 59.6278ZM69.7909 57.5054V59.0929H51.6048V57.5054L60.4989 53.9473C60.6272 53.896 60.7684 53.896 60.8968 53.9473L69.7909 57.5054Z" fill="white"/>
<path fill-rule="evenodd" clip-rule="evenodd" d="M70.8607 71.3953V60.6977C70.8607 59.8119 70.1418 59.093 69.256 59.093C68.3703 59.093 67.6514 59.8119 67.6514 60.6977V71.3953C67.6514 72.2811 68.3703 73 69.256 73C70.1418 73 70.8607 72.2811 70.8607 71.3953Z" fill="white"/>
<path fill-rule="evenodd" clip-rule="evenodd" d="M50.0002 73.0001H71.3955C72.2813 73.0001 73.0002 72.2812 73.0002 71.3954C73.0002 70.5097 72.2813 69.7908 71.3955 69.7908H50.0002C49.1144 69.7908 48.3955 70.5097 48.3955 71.3954C48.3955 72.2812 49.1144 73.0001 50.0002 73.0001Z" fill="white"/>
<path fill-rule="evenodd" clip-rule="evenodd" d="M53.7445 71.3953V60.6977C53.7445 59.8119 53.0256 59.093 52.1398 59.093C51.254 59.093 50.5352 59.8119 50.5352 60.6977V71.3953C50.5352 72.2811 51.254 73 52.1398 73C53.0256 73 53.7445 72.2811 53.7445 71.3953Z" fill="white"/>
<path fill-rule="evenodd" clip-rule="evenodd" d="M62.3021 71.3953V60.6977C62.3021 59.8119 61.5832 59.093 60.6974 59.093C59.8117 59.093 59.0928 59.8119 59.0928 60.6977V71.3953C59.0928 72.2811 59.8117 73 60.6974 73C61.5832 73 62.3021 72.2811 62.3021 71.3953Z" fill="white"/>
<path d="M35.0236 35.5582C35.9098 35.5582 36.6282 34.8398 36.6282 33.9535C36.6282 33.0673 35.9098 32.3489 35.0236 32.3489C34.1374 32.3489 33.4189 33.0673 33.4189 33.9535C33.4189 34.8398 34.1374 35.5582 35.0236 35.5582Z" fill="white"/>
<path d="M40.3722 35.5582C41.2585 35.5582 41.9769 34.8398 41.9769 33.9535C41.9769 33.0673 41.2585 32.3489 40.3722 32.3489C39.486 32.3489 38.7676 33.0673 38.7676 33.9535C38.7676 34.8398 39.486 35.5582 40.3722 35.5582Z" fill="white"/>
<path d="M45.7209 35.5582C46.6071 35.5582 47.3255 34.8398 47.3255 33.9535C47.3255 33.0673 46.6071 32.3489 45.7209 32.3489C44.8346 32.3489 44.1162 33.0673 44.1162 33.9535C44.1162 34.8398 44.8346 35.5582 45.7209 35.5582Z" fill="white"/>
<path fill-rule="evenodd" clip-rule="evenodd" d="M73 50V33.9535C73 30.113 69.887 27 66.0465 27C57.8264 27 42.1736 27 33.9535 27C30.113 27 27 30.113 27 33.9535C27 42.1736 27 57.8264 27 66.0465C27 69.887 30.113 73 33.9535 73C38.254 73 43.5814 73 43.5814 73C44.4672 73 45.186 72.2811 45.186 71.3954C45.186 70.5096 44.4672 69.7907 43.5814 69.7907C43.5814 69.7907 38.254 69.7907 33.9535 69.7907C31.8867 69.7907 30.2093 68.1154 30.2093 66.0465V33.9535C30.2093 31.8846 31.8846 30.2093 33.9535 30.2093H66.0465C68.1154 30.2093 69.7907 31.8846 69.7907 33.9535V50C69.7907 50.8858 70.5096 51.6047 71.3954 51.6047C72.2811 51.6047 73 50.8858 73 50Z" fill="white"/>
<path fill-rule="evenodd" clip-rule="evenodd" d="M71.3954 37.6978H28.6047C27.7189 37.6978 27 38.4166 27 39.3024C27 40.1882 27.7189 40.9071 28.6047 40.9071H71.3954C72.2811 40.9071 73 40.1882 73 39.3024C73 38.4166 72.2811 37.6978 71.3954 37.6978Z" fill="white"/>
</svg>
