<svg width="100" height="100" viewBox="0 0 100 100" fill="none" xmlns="http://www.w3.org/2000/svg">
<rect width="100" height="100" rx="12" fill="#009345"/>
<path d="M65.8692 18H34.7308C29.3621 18 25 22.3621 25 27.7308V72.0226C25 77.3913 29.3621 81.7533 34.7308 81.7533H65.8692C71.2379 81.7533 75.6 77.3913 75.6 72.0226V27.7308C75.5329 22.3621 71.1708 18 65.8692 18ZM71.1037 72.0226C71.1037 74.9082 68.7549 77.257 65.8692 77.257H34.7308C31.8451 77.257 29.4963 74.9082 29.4963 72.0226V27.7308C29.4963 24.8451 31.8451 22.4963 34.7308 22.4963H65.8692C68.7549 22.4963 71.1037 24.8451 71.1037 27.7308V72.0226Z" fill="white"/>
<path d="M50.2997 29.8782C41.7098 29.8782 34.7305 36.8575 34.7305 45.4474C34.7305 54.0373 41.7098 60.9495 50.2997 60.9495C58.8896 60.9495 65.8689 53.9702 65.8689 45.3803C65.8689 36.7904 58.8896 29.8782 50.2997 29.8782ZM60.8358 39.6761H56.4066C56.1382 37.7299 55.6684 35.8509 55.0644 34.3745C57.5474 35.3811 59.5607 37.3272 60.8358 39.6761ZM62.3793 45.4474C62.3793 46.2527 62.3122 46.9909 62.178 47.7291H56.8093C56.8764 46.9909 56.8764 46.1856 56.8764 45.4474C56.8764 44.7092 56.8764 43.9039 56.8093 43.1657H62.178C62.3122 43.9039 62.3793 44.6421 62.3793 45.4474ZM50.2997 57.4599C49.6286 57.3257 48.4207 55.1111 47.7496 51.1517H52.9169C52.1787 55.1782 50.9708 57.3928 50.2997 57.4599ZM47.3469 47.662C47.2798 46.9238 47.2798 46.1856 47.2798 45.3803C47.2798 44.575 47.3469 43.8368 47.3469 43.0986H53.2525C53.3196 43.8368 53.3196 44.575 53.3196 45.3803C53.3196 46.1856 53.2525 46.9238 53.2525 47.662H47.3469ZM38.2201 45.4474C38.2201 44.6421 38.2872 43.9039 38.4215 43.1657H43.7902C43.723 43.9039 43.723 44.7092 43.723 45.4474C43.723 46.1856 43.723 46.9909 43.7902 47.7291H38.4215C38.2872 46.9238 38.2201 46.1856 38.2201 45.4474ZM50.2997 33.3678C50.9708 33.502 52.1787 35.7166 52.8498 39.6761H47.6825C48.4207 35.7166 49.6286 33.502 50.2997 33.3678ZM45.535 34.3074C44.931 35.8509 44.4612 37.6628 44.1928 39.6089H39.7636C41.0387 37.3272 43.052 35.3811 45.535 34.3074ZM39.7636 51.1517H44.1928C44.4612 53.0978 44.931 54.9769 45.535 56.5204C43.052 55.4466 41.0387 53.5676 39.7636 51.1517ZM55.0644 56.5204C55.6684 54.9769 56.1382 53.1649 56.4066 51.1517H60.8358C59.5607 53.5676 57.5474 55.4466 55.0644 56.5204Z" fill="white"/>
<path d="M60.9032 66.1841H39.6969C38.6231 66.1841 37.6836 67.0565 37.6836 68.1973C37.6836 69.2711 38.556 70.2106 39.6969 70.2106H60.9032C61.977 70.2106 62.9165 69.3382 62.9165 68.1973C62.9165 67.0565 61.977 66.1841 60.9032 66.1841Z" fill="white"/>
</svg>
