<svg width="141" height="98" viewBox="0 0 141 98" fill="none" xmlns="http://www.w3.org/2000/svg">
<mask id="mask0_1_1074" style="mask-type:luminance" maskUnits="userSpaceOnUse" x="39" y="0" width="64" height="55">
<path d="M39.6084 0H102.136V54.4223H39.6084V0Z" fill="white"/>
</mask>
<g mask="url(#mask0_1_1074)">
<path d="M102.098 18.415V54.3994H87.9434V43.8549H92.5274L87.9434 39.3141V18.415H102.098Z" fill="#009345"/>
<path d="M57.1591 22.0808L52.575 26.6406H57.1591V54.3983H39.6475V10.5293H57.1591V22.0808Z" fill="#009345"/>
<path d="M83.4356 39.3137L78.8516 43.8545H83.4356V54.399H61.666V26.6412H66.2501L61.666 22.0814V0.0234375H83.4356V39.3137Z" fill="#009345"/>
</g>
<path d="M0.982547 67.3304V63.8227H17.509V67.3304H11.3484V83.9453H7.14312V67.3304H0.982547Z" fill="#009345"/>
<path d="M23.8892 83.9453H19.3302L26.2768 63.8227H31.7594L38.6962 83.9453H34.1372L29.0967 68.4211H28.9395L23.8892 83.9453ZM23.6043 76.0358H34.373V79.3568H23.6043V76.0358Z" fill="white"/>
<path d="M46.1473 63.8227L50.2052 70.6809H50.3624L54.44 63.8227H59.2446L53.1037 73.884L59.3822 83.9453H54.4891L50.3624 77.0773H50.2052L46.0785 83.9453H41.205L47.5032 73.884L41.3229 63.8227H46.1473Z" fill="#FF3131"/>
<path d="M93.7221 63.8227H97.9765V76.8906C97.9765 78.3579 97.6261 79.6418 96.9252 80.7422C96.2309 81.8427 95.2582 82.7008 94.007 83.3165C92.7559 83.9257 91.2985 84.2303 89.6347 84.2303C87.9644 84.2303 86.5037 83.9257 85.2525 83.3165C84.0014 82.7008 83.0287 81.8427 82.3344 80.7422C81.64 79.6418 81.2929 78.3579 81.2929 76.8906V63.8227H85.5473V76.5271C85.5473 77.2935 85.7143 77.9747 86.0484 78.5708C86.389 79.1669 86.8672 79.6352 87.4829 79.9758C88.0987 80.3164 88.8159 80.4867 89.6347 80.4867C90.46 80.4867 91.1773 80.3164 91.7865 79.9758C92.4022 79.6352 92.8771 79.1669 93.2112 78.5708C93.5518 77.9747 93.7221 77.2935 93.7221 76.5271V63.8227Z" fill="#009345"/>
<path d="M106.501 83.9453H101.942L108.888 63.8227H114.371L121.308 83.9453H116.748L111.708 68.4211H111.551L106.501 83.9453ZM106.216 76.0358H116.984V79.3568H106.216V76.0358Z" fill="white"/>
<path d="M124.77 83.9453V63.8227H138.33V67.3304H129.025V72.1253H137.632V75.633H129.025V80.4376H138.369V83.9453H124.77Z" fill="#FF3131"/>
<path d="M0.839322 96.4277V92.2627H1.34368V95.9803H3.27978V96.4277H0.839322ZM5.89335 96.4277V92.2627H8.40702V92.7101H6.39771V94.1174H8.27686V94.5649H6.39771V95.9803H8.43956V96.4277H5.89335ZM13.9959 93.5643C13.9512 93.4273 13.8922 93.3046 13.819 93.1962C13.7471 93.0863 13.661 92.9928 13.5607 92.9155C13.4617 92.8382 13.3492 92.7792 13.2231 92.7386C13.097 92.6979 12.9587 92.6776 12.8082 92.6776C12.5615 92.6776 12.3371 92.7413 12.1351 92.8687C11.9331 92.9962 11.7724 93.184 11.6531 93.4321C11.5338 93.6802 11.4741 93.9846 11.4741 94.3452C11.4741 94.7059 11.5344 95.0102 11.6551 95.2583C11.7758 95.5065 11.9392 95.6942 12.1452 95.8217C12.3513 95.9491 12.5832 96.0129 12.8408 96.0129C13.0794 96.0129 13.2895 95.962 13.4712 95.8603C13.6543 95.7573 13.7966 95.6122 13.8983 95.4251C14.0013 95.2367 14.0529 95.015 14.0529 94.7601L14.2074 94.7926H12.9547V94.3452H14.541V94.7926C14.541 95.1356 14.4677 95.4339 14.3213 95.6875C14.1762 95.941 13.9756 96.1376 13.7193 96.2772C13.4644 96.4155 13.1716 96.4847 12.8408 96.4847C12.472 96.4847 12.1479 96.3979 11.8687 96.2244C11.5907 96.0508 11.3738 95.8041 11.2179 95.4841C11.0633 95.1641 10.986 94.7845 10.986 94.3452C10.986 94.0157 11.0301 93.7195 11.1182 93.4565C11.2077 93.1921 11.3338 92.967 11.4965 92.7813C11.6592 92.5955 11.8517 92.4532 12.0741 92.3542C12.2964 92.2552 12.5411 92.2057 12.8082 92.2057C13.0279 92.2057 13.2326 92.239 13.4224 92.3054C13.6136 92.3705 13.7837 92.4633 13.9329 92.584C14.0834 92.7033 14.2088 92.8464 14.3091 93.0131C14.4094 93.1785 14.4786 93.3622 14.5165 93.5643H13.9959ZM17.2796 96.4277H16.7508L18.2802 92.2627H18.8008L20.3302 96.4277H19.8014L18.5568 92.9216H18.5242L17.2796 96.4277ZM17.4748 94.8008H19.6062V95.2482H17.4748V94.8008ZM22.8115 96.4277V92.2627H23.3159V95.9803H25.252V96.4277H22.8115ZM32.4234 96.4847C32.1495 96.4847 31.9136 96.4345 31.7156 96.3342C31.5177 96.2339 31.3652 96.0962 31.2581 95.9213C31.1509 95.7464 31.0974 95.5465 31.0974 95.3214C31.0974 95.1478 31.134 94.994 31.2072 94.8597C31.2818 94.7242 31.3841 94.5987 31.5143 94.4835C31.6458 94.3669 31.797 94.2503 31.9678 94.1337L32.5698 93.6863C32.6878 93.609 32.782 93.5263 32.8525 93.4382C32.9243 93.35 32.9603 93.2348 32.9603 93.0924C32.9603 92.9867 32.9135 92.8843 32.8199 92.7853C32.7278 92.6864 32.6064 92.6369 32.4559 92.6369C32.3502 92.6369 32.2566 92.664 32.1753 92.7182C32.0953 92.7711 32.0322 92.8389 31.9861 92.9216C31.9414 93.003 31.919 93.087 31.919 93.1738C31.919 93.2714 31.9455 93.3704 31.9983 93.4707C32.0526 93.5697 32.121 93.6714 32.2037 93.7758C32.2878 93.8788 32.3746 93.9846 32.464 94.093L34.3757 96.4277H33.7982L32.22 94.5242C32.0736 94.3479 31.9407 94.1879 31.8214 94.0442C31.7021 93.9005 31.6072 93.7588 31.5367 93.6192C31.4662 93.4795 31.4309 93.3284 31.4309 93.1657C31.4309 92.9786 31.4723 92.8145 31.555 92.6735C31.639 92.5311 31.7563 92.4206 31.9068 92.342C32.0587 92.262 32.2363 92.222 32.4396 92.222C32.6484 92.222 32.8281 92.2627 32.9786 92.344C33.1291 92.424 33.245 92.5305 33.3263 92.6633C33.4077 92.7948 33.4484 92.9379 33.4484 93.0924C33.4484 93.2917 33.3989 93.4646 33.2999 93.611C33.2009 93.7575 33.066 93.8937 32.8952 94.0198L32.0654 94.6381C31.8783 94.7764 31.7516 94.9106 31.6851 95.0407C31.6187 95.1709 31.5855 95.2644 31.5855 95.3214C31.5855 95.4516 31.6194 95.5729 31.6872 95.6854C31.755 95.798 31.8505 95.8888 31.9739 95.9579C32.0973 96.0271 32.2417 96.0617 32.4071 96.0617C32.5644 96.0617 32.7176 96.0284 32.8667 95.962C33.0159 95.8942 33.1508 95.7966 33.2714 95.6692C33.3935 95.5417 33.4897 95.3885 33.5602 95.2095C33.6321 95.0306 33.668 94.8292 33.668 94.6055H34.1317C34.1317 94.8821 34.0998 95.1079 34.0361 95.2828C33.9724 95.4577 33.9005 95.5946 33.8205 95.6936C33.7405 95.7925 33.6761 95.8664 33.6273 95.9152C33.6111 95.9356 33.5962 95.9559 33.5826 95.9762C33.569 95.9966 33.5541 96.0169 33.5379 96.0373C33.4036 96.1878 33.2341 96.3003 33.0294 96.3749C32.8247 96.4481 32.6227 96.4847 32.4234 96.4847ZM40.4189 96.4277H39.8901L41.4195 92.2627H41.9401L43.4695 96.4277H42.9407L41.6961 92.9216H41.6635L40.4189 96.4277ZM40.6141 94.8008H42.7455V95.2482H40.6141V94.8008ZM49.1067 93.5643H48.6023C48.5725 93.4192 48.5203 93.2917 48.4457 93.1819C48.3725 93.0721 48.283 92.9799 48.1773 92.9053C48.0729 92.8294 47.9569 92.7725 47.8295 92.7345C47.7021 92.6965 47.5692 92.6776 47.4309 92.6776C47.1787 92.6776 46.9503 92.7413 46.7455 92.8687C46.5422 92.9962 46.3801 93.184 46.2595 93.4321C46.1402 93.6802 46.0805 93.9846 46.0805 94.3452C46.0805 94.7059 46.1402 95.0102 46.2595 95.2583C46.3801 95.5065 46.5422 95.6942 46.7455 95.8217C46.9503 95.9491 47.1787 96.0129 47.4309 96.0129C47.5692 96.0129 47.7021 95.9939 47.8295 95.9559C47.9569 95.9179 48.0729 95.8617 48.1773 95.7871C48.283 95.7112 48.3725 95.6183 48.4457 95.5085C48.5203 95.3973 48.5725 95.2699 48.6023 95.1262H49.1067C49.0687 95.339 48.9996 95.5295 48.8992 95.6976C48.7989 95.8658 48.6742 96.0088 48.525 96.1267C48.3759 96.2433 48.2085 96.3321 48.0227 96.3932C47.8383 96.4542 47.641 96.4847 47.4309 96.4847C47.0757 96.4847 46.7598 96.3979 46.4832 96.2244C46.2066 96.0508 45.989 95.8041 45.8304 95.4841C45.6717 95.1641 45.5924 94.7845 45.5924 94.3452C45.5924 93.9059 45.6717 93.5263 45.8304 93.2063C45.989 92.8864 46.2066 92.6396 46.4832 92.4661C46.7598 92.2925 47.0757 92.2057 47.4309 92.2057C47.641 92.2057 47.8383 92.2362 48.0227 92.2973C48.2085 92.3583 48.3759 92.4478 48.525 92.5657C48.6742 92.6823 48.7989 92.8247 48.8992 92.9928C48.9996 93.1596 49.0687 93.35 49.1067 93.5643ZM55.1059 93.5643H54.6015C54.5717 93.4192 54.5195 93.2917 54.4449 93.1819C54.3717 93.0721 54.2822 92.9799 54.1765 92.9053C54.0721 92.8294 53.9561 92.7725 53.8287 92.7345C53.7013 92.6965 53.5684 92.6776 53.4301 92.6776C53.1779 92.6776 52.9495 92.7413 52.7447 92.8687C52.5414 92.9962 52.3793 93.184 52.2587 93.4321C52.1394 93.6802 52.0797 93.9846 52.0797 94.3452C52.0797 94.7059 52.1394 95.0102 52.2587 95.2583C52.3793 95.5065 52.5414 95.6942 52.7447 95.8217C52.9495 95.9491 53.1779 96.0129 53.4301 96.0129C53.5684 96.0129 53.7013 95.9939 53.8287 95.9559C53.9561 95.9179 54.0721 95.8617 54.1765 95.7871C54.2822 95.7112 54.3717 95.6183 54.4449 95.5085C54.5195 95.3973 54.5717 95.2699 54.6015 95.1262H55.1059C55.0679 95.339 54.9988 95.5295 54.8984 95.6976C54.7981 95.8658 54.6734 96.0088 54.5242 96.1267C54.3751 96.2433 54.2077 96.3321 54.0219 96.3932C53.8375 96.4542 53.6402 96.4847 53.4301 96.4847C53.0749 96.4847 52.759 96.3979 52.4824 96.2244C52.2058 96.0508 51.9882 95.8041 51.8296 95.4841C51.6709 95.1641 51.5916 94.7845 51.5916 94.3452C51.5916 93.9059 51.6709 93.5263 51.8296 93.2063C51.9882 92.8864 52.2058 92.6396 52.4824 92.4661C52.759 92.2925 53.0749 92.2057 53.4301 92.2057C53.6402 92.2057 53.8375 92.2362 54.0219 92.2973C54.2077 92.3583 54.3751 92.4478 54.5242 92.5657C54.6734 92.6823 54.7981 92.8247 54.8984 92.9928C54.9988 93.1596 55.0679 93.35 55.1059 93.5643ZM61.2678 94.3452C61.2678 94.7845 61.1885 95.1641 61.0298 95.4841C60.8712 95.8041 60.6536 96.0508 60.377 96.2244C60.1004 96.3979 59.7845 96.4847 59.4293 96.4847C59.0741 96.4847 58.7582 96.3979 58.4816 96.2244C58.205 96.0508 57.9874 95.8041 57.8288 95.4841C57.6701 95.1641 57.5908 94.7845 57.5908 94.3452C57.5908 93.9059 57.6701 93.5263 57.8288 93.2063C57.9874 92.8864 58.205 92.6396 58.4816 92.4661C58.7582 92.2925 59.0741 92.2057 59.4293 92.2057C59.7845 92.2057 60.1004 92.2925 60.377 92.4661C60.6536 92.6396 60.8712 92.8864 61.0298 93.2063C61.1885 93.5263 61.2678 93.9059 61.2678 94.3452ZM60.7797 94.3452C60.7797 93.9846 60.7193 93.6802 60.5987 93.4321C60.4794 93.184 60.3173 92.9962 60.1126 92.8687C59.9092 92.7413 59.6815 92.6776 59.4293 92.6776C59.1771 92.6776 58.9487 92.7413 58.7439 92.8687C58.5406 92.9962 58.3785 93.184 58.2579 93.4321C58.1386 93.6802 58.0789 93.9846 58.0789 94.3452C58.0789 94.7059 58.1386 95.0102 58.2579 95.2583C58.3785 95.5065 58.5406 95.6942 58.7439 95.8217C58.9487 95.9491 59.1771 96.0129 59.4293 96.0129C59.6815 96.0129 59.9092 95.9491 60.1126 95.8217C60.3173 95.6942 60.4794 95.5065 60.5987 95.2583C60.7193 95.0102 60.7797 94.7059 60.7797 94.3452ZM66.6818 92.2627H67.1861V95.0204C67.1861 95.3051 67.119 95.5593 66.9848 95.783C66.8519 96.0054 66.6641 96.181 66.4214 96.3098C66.1788 96.4372 65.894 96.5009 65.5673 96.5009C65.2405 96.5009 64.9558 96.4372 64.7131 96.3098C64.4704 96.181 64.282 96.0054 64.1478 95.783C64.0149 95.5593 63.9484 95.3051 63.9484 95.0204V92.2627H64.4528V94.9797C64.4528 95.1831 64.4976 95.3641 64.587 95.5227C64.6765 95.68 64.804 95.8041 64.9694 95.8949C65.1361 95.9844 65.3354 96.0291 65.5673 96.0291C65.7991 96.0291 65.9984 95.9844 66.1652 95.8949C66.332 95.8041 66.4594 95.68 66.5475 95.5227C66.637 95.3641 66.6818 95.1831 66.6818 94.9797V92.2627ZM73.3287 92.2627V96.4277H72.8406L70.571 93.1575H70.5303V96.4277H70.0259V92.2627H70.514L72.7918 95.541H72.8325V92.2627H73.3287ZM75.9428 92.7101V92.2627H79.0666V92.7101H77.7569V96.4277H77.2525V92.7101H75.9428ZM82.182 92.2627V96.4277H81.6776V92.2627H82.182ZM88.3286 92.2627V96.4277H87.8405L85.5709 93.1575H85.5302V96.4277H85.0258V92.2627H85.5139L87.7917 95.541H87.8324V92.2627H88.3286ZM94.0176 93.5643C93.9729 93.4273 93.9139 93.3046 93.8407 93.1962C93.7689 93.0863 93.6828 92.9928 93.5824 92.9155C93.4835 92.8382 93.3709 92.7792 93.2448 92.7386C93.1187 92.6979 92.9805 92.6776 92.83 92.6776C92.5832 92.6776 92.3588 92.7413 92.1568 92.8687C91.9548 92.9962 91.7941 93.184 91.6748 93.4321C91.5555 93.6802 91.4958 93.9846 91.4958 94.3452C91.4958 94.7059 91.5562 95.0102 91.6768 95.2583C91.7975 95.5065 91.9609 95.6942 92.167 95.8217C92.373 95.9491 92.6049 96.0129 92.8625 96.0129C93.1011 96.0129 93.3113 95.962 93.4929 95.8603C93.676 95.7573 93.8183 95.6122 93.92 95.4251C94.0231 95.2367 94.0746 95.015 94.0746 94.7601L94.2292 94.7926H92.9764V94.3452H94.5627V94.7926C94.5627 95.1356 94.4895 95.4339 94.343 95.6875C94.198 95.941 93.9973 96.1376 93.7411 96.2772C93.4862 96.4155 93.1933 96.4847 92.8625 96.4847C92.4937 96.4847 92.1697 96.3979 91.8904 96.2244C91.6124 96.0508 91.3955 95.8041 91.2396 95.4841C91.085 95.1641 91.0077 94.7845 91.0077 94.3452C91.0077 94.0157 91.0518 93.7195 91.1399 93.4565C91.2294 93.1921 91.3555 92.967 91.5182 92.7813C91.6809 92.5955 91.8734 92.4532 92.0958 92.3542C92.3181 92.2552 92.5629 92.2057 92.83 92.2057C93.0496 92.2057 93.2543 92.239 93.4441 92.3054C93.6353 92.3705 93.8055 92.4633 93.9546 92.584C94.1051 92.7033 94.2305 92.8464 94.3308 93.0131C94.4312 93.1785 94.5003 93.3622 94.5383 93.5643H94.0176ZM102.98 93.3039C102.956 93.0979 102.857 92.9379 102.683 92.824C102.51 92.7101 102.297 92.6532 102.045 92.6532C101.86 92.6532 101.699 92.683 101.561 92.7426C101.424 92.8023 101.317 92.8843 101.239 92.9887C101.163 93.0931 101.125 93.2118 101.125 93.3446C101.125 93.4558 101.152 93.5514 101.205 93.6314C101.259 93.71 101.328 93.7758 101.412 93.8286C101.496 93.8802 101.584 93.9229 101.677 93.9568C101.769 93.9893 101.854 94.0157 101.931 94.0361L102.354 94.15C102.462 94.1784 102.583 94.2178 102.716 94.2679C102.85 94.3181 102.978 94.3866 103.1 94.4733C103.224 94.5587 103.325 94.6686 103.405 94.8028C103.485 94.937 103.525 95.1018 103.525 95.297C103.525 95.5221 103.466 95.7254 103.348 95.9071C103.232 96.0888 103.061 96.2332 102.836 96.3403C102.612 96.4474 102.34 96.5009 102.02 96.5009C101.722 96.5009 101.464 96.4528 101.245 96.3566C101.029 96.2603 100.858 96.1261 100.733 95.9539C100.61 95.7817 100.54 95.5817 100.523 95.3539H101.044C101.058 95.5112 101.111 95.6414 101.203 95.7444C101.296 95.8461 101.414 95.922 101.557 95.9722C101.7 96.021 101.855 96.0454 102.02 96.0454C102.213 96.0454 102.386 96.0142 102.539 95.9518C102.692 95.8881 102.813 95.8 102.903 95.6875C102.992 95.5736 103.037 95.4407 103.037 95.2889C103.037 95.1506 102.999 95.038 102.921 94.9513C102.844 94.8645 102.742 94.794 102.616 94.7398C102.49 94.6855 102.354 94.6381 102.207 94.5974L101.695 94.451C101.37 94.3574 101.112 94.2239 100.922 94.0503C100.732 93.8768 100.637 93.6497 100.637 93.369C100.637 93.1358 100.7 92.9325 100.827 92.7589C100.954 92.584 101.125 92.4484 101.339 92.3522C101.555 92.2545 101.795 92.2057 102.061 92.2057C102.329 92.2057 102.568 92.2539 102.777 92.3501C102.986 92.445 103.151 92.5752 103.273 92.7406C103.396 92.906 103.462 93.0938 103.468 93.3039H102.98ZM106.187 96.4277V92.2627H108.701V92.7101H106.691V94.1174H108.571V94.5649H106.691V95.9803H108.733V96.4277H106.187ZM111.442 96.4277V92.2627H112.85C113.175 92.2627 113.442 92.3183 113.651 92.4294C113.86 92.5393 114.014 92.6904 114.115 92.883C114.215 93.0755 114.265 93.2945 114.265 93.5399C114.265 93.7853 114.215 94.0029 114.115 94.1927C114.014 94.3825 113.861 94.5316 113.653 94.6401C113.446 94.7472 113.181 94.8008 112.858 94.8008H111.719V94.3452H112.842C113.064 94.3452 113.243 94.3127 113.379 94.2476C113.516 94.1825 113.614 94.0903 113.676 93.971C113.738 93.8503 113.769 93.7066 113.769 93.5399C113.769 93.3731 113.738 93.2273 113.676 93.1026C113.613 92.9779 113.513 92.8816 113.377 92.8138C113.24 92.7447 113.059 92.7101 112.834 92.7101H111.947V96.4277H111.442ZM113.403 94.5567L114.428 96.4277H113.842L112.834 94.5567H113.403ZM117.014 92.2627L118.251 95.7688H118.299L119.536 92.2627H120.065L118.535 96.4277H118.015L116.485 92.2627H117.014ZM123.05 92.2627V96.4277H122.546V92.2627H123.05ZM129.246 93.5643H128.741C128.712 93.4192 128.659 93.2917 128.585 93.1819C128.512 93.0721 128.422 92.9799 128.316 92.9053C128.212 92.8294 128.096 92.7725 127.969 92.7345C127.841 92.6965 127.708 92.6776 127.57 92.6776C127.318 92.6776 127.089 92.7413 126.885 92.8687C126.681 92.9962 126.519 93.184 126.399 93.4321C126.279 93.6802 126.22 93.9846 126.22 94.3452C126.22 94.7059 126.279 95.0102 126.399 95.2583C126.519 95.5065 126.681 95.6942 126.885 95.8217C127.089 95.9491 127.318 96.0129 127.57 96.0129C127.708 96.0129 127.841 95.9939 127.969 95.9559C128.096 95.9179 128.212 95.8617 128.316 95.7871C128.422 95.7112 128.512 95.6183 128.585 95.5085C128.659 95.3973 128.712 95.2699 128.741 95.1262H129.246C129.208 95.339 129.139 95.5295 129.038 95.6976C128.938 95.8658 128.813 96.0088 128.664 96.1267C128.515 96.2433 128.348 96.3321 128.162 96.3932C127.977 96.4542 127.78 96.4847 127.57 96.4847C127.215 96.4847 126.899 96.3979 126.622 96.2244C126.346 96.0508 126.128 95.8041 125.97 95.4841C125.811 95.1641 125.732 94.7845 125.732 94.3452C125.732 93.9059 125.811 93.5263 125.97 93.2063C126.128 92.8864 126.346 92.6396 126.622 92.4661C126.899 92.2925 127.215 92.2057 127.57 92.2057C127.78 92.2057 127.977 92.2362 128.162 92.2973C128.348 92.3583 128.515 92.4478 128.664 92.5657C128.813 92.6823 128.938 92.8247 129.038 92.9928C129.139 93.1596 129.208 93.35 129.246 93.5643ZM131.893 96.4277V92.2627H134.407V92.7101H132.398V94.1174H134.277V94.5649H132.398V95.9803H134.44V96.4277H131.893ZM139.427 93.3039C139.402 93.0979 139.303 92.9379 139.13 92.824C138.956 92.7101 138.743 92.6532 138.491 92.6532C138.307 92.6532 138.145 92.683 138.007 92.7426C137.87 92.8023 137.763 92.8843 137.686 92.9887C137.61 93.0931 137.572 93.2118 137.572 93.3446C137.572 93.4558 137.598 93.5514 137.651 93.6314C137.705 93.71 137.775 93.7758 137.859 93.8286C137.943 93.8802 138.031 93.9229 138.123 93.9568C138.215 93.9893 138.3 94.0157 138.377 94.0361L138.8 94.15C138.909 94.1784 139.029 94.2178 139.162 94.2679C139.296 94.3181 139.425 94.3866 139.547 94.4733C139.67 94.5587 139.772 94.6686 139.852 94.8028C139.932 94.937 139.972 95.1018 139.972 95.297C139.972 95.5221 139.913 95.7254 139.795 95.9071C139.678 96.0888 139.507 96.2332 139.282 96.3403C139.059 96.4474 138.787 96.5009 138.467 96.5009C138.168 96.5009 137.91 96.4528 137.692 96.3566C137.475 96.2603 137.304 96.1261 137.179 95.9539C137.056 95.7817 136.986 95.5817 136.97 95.3539H137.491C137.504 95.5112 137.557 95.6414 137.649 95.7444C137.743 95.8461 137.861 95.922 138.003 95.9722C138.147 96.021 138.301 96.0454 138.467 96.0454C138.659 96.0454 138.832 96.0142 138.985 95.9518C139.139 95.8881 139.26 95.8 139.349 95.6875C139.439 95.5736 139.484 95.4407 139.484 95.2889C139.484 95.1506 139.445 95.038 139.368 94.9513C139.29 94.8645 139.189 94.794 139.063 94.7398C138.936 94.6855 138.8 94.6381 138.654 94.5974L138.141 94.451C137.816 94.3574 137.558 94.2239 137.369 94.0503C137.179 93.8768 137.084 93.6497 137.084 93.369C137.084 93.1358 137.147 92.9325 137.273 92.7589C137.4 92.584 137.571 92.4484 137.785 92.3522C138.001 92.2545 138.242 92.2057 138.507 92.2057C138.776 92.2057 139.014 92.2539 139.223 92.3501C139.432 92.445 139.597 92.5752 139.719 92.7406C139.843 92.906 139.908 93.0938 139.915 93.3039H139.427Z" fill="white"/>
<path d="M62.4554 79.4412C62.4149 78.1653 62.5702 77.0852 62.9213 76.2009C63.2723 75.3165 63.782 74.6448 64.4503 74.1858C65.1254 73.7267 65.9186 73.4972 66.83 73.4972C67.4645 73.4972 68.0721 73.6288 68.6527 73.8921C69.2332 74.1554 69.8914 74.6111 70.6273 75.2591C71.0188 75.6034 71.3496 75.8667 71.6196 76.049C71.8897 76.2245 72.2002 76.3123 72.5512 76.3123C73.0305 76.3123 73.4255 76.1266 73.736 75.7553C74.0465 75.3773 74.1917 74.7798 74.1714 73.963H77.4726C77.5198 75.2456 77.3646 76.3291 77.0068 77.2135C76.649 78.0978 76.1325 78.7695 75.4575 79.2286C74.7824 79.6876 73.9959 79.9172 73.0981 79.9172C72.4297 79.9172 71.8019 79.7788 71.2146 79.502C70.634 79.2185 69.9893 78.7662 69.2805 78.1451C68.8619 77.7738 68.5278 77.5071 68.278 77.3451C68.0282 77.1764 67.7312 77.092 67.3869 77.092C66.9076 77.092 66.5127 77.2742 66.2021 77.6388C65.8916 77.9966 65.7465 78.5974 65.7667 79.4412H62.4554Z" fill="white"/>
</svg>
